<svg width="445" height="284" viewBox="0 0 445 284" fill="none" xmlns="http://www.w3.org/2000/svg">
<path d="M301.36 358.932L482.668 254.253L181.976 80.6501L0.667969 185.328L301.36 358.932Z" fill="#2F6FEB"/>
<path d="M475.885 254.254L181.979 84.5677L7.45367 185.326L301.362 355.016L475.885 254.254Z" fill="#5797FF"/>
<mask id="path-3-inside-1_37_865" fill="white">
<path d="M50.957 127.296V130.892C51.07 131.887 51.8171 132.927 53.2414 133.74C55.1866 134.871 57.8324 135.301 60.0713 134.962C61.0202 134.827 61.9024 134.555 62.6262 134.125L103.196 110.697C104.259 110.109 104.757 109.296 104.802 108.458L104.824 104.953L102.246 105.157C99.4873 103.687 95.4849 103.551 93.155 104.907L58.7812 124.741L53.1061 128.02L52.9931 127.296H50.957Z"/>
</mask>
<path d="M50.957 127.296V130.892C51.07 131.887 51.8171 132.927 53.2414 133.74C55.1866 134.871 57.8324 135.301 60.0713 134.962C61.0202 134.827 61.9024 134.555 62.6262 134.125L103.196 110.697C104.259 110.109 104.757 109.296 104.802 108.458L104.824 104.953L102.246 105.157C99.4873 103.687 95.4849 103.551 93.155 104.907L58.7812 124.741L53.1061 128.02L52.9931 127.296H50.957Z" fill="#C7784C"/>
<path d="M50.957 130.892L50.8245 130.907L50.8236 130.899V130.892H50.957ZM53.2414 133.74L53.3075 133.625L53.3084 133.625L53.2414 133.74ZM60.0713 134.962L60.0514 134.83L60.0525 134.83L60.0713 134.962ZM62.6262 134.125L62.5581 134.01L62.5595 134.009L62.6262 134.125ZM103.196 110.697L103.129 110.581L103.132 110.58L103.196 110.697ZM104.802 108.458L104.936 108.458L104.935 108.465L104.802 108.458ZM104.824 104.953L104.814 104.82L104.959 104.808L104.958 104.954L104.824 104.953ZM102.246 105.157L102.257 105.29L102.218 105.293L102.183 105.274L102.246 105.157ZM93.155 104.907L93.2221 105.023L93.2217 105.023L93.155 104.907ZM58.7812 124.741L58.7145 124.626L58.7146 124.626L58.7812 124.741ZM53.1061 128.02L53.1728 128.135L53.0044 128.233L52.9744 128.04L53.1061 128.02ZM52.9931 127.296V127.163H53.1072L53.1248 127.275L52.9931 127.296ZM51.0903 127.296V130.892H50.8236V127.296H51.0903ZM51.0895 130.877C51.1961 131.815 51.9052 132.824 53.3075 133.625L53.1752 133.856C51.7289 133.03 50.944 131.959 50.8245 130.907L51.0895 130.877ZM53.3084 133.625C55.2249 134.739 57.8395 135.165 60.0514 134.83L60.0913 135.094C57.8253 135.437 55.1483 135.003 53.1744 133.856L53.3084 133.625ZM60.0525 134.83C60.9891 134.696 61.8534 134.429 62.5581 134.01L62.6943 134.24C61.9515 134.681 61.0513 134.957 60.0902 135.094L60.0525 134.83ZM62.5595 134.009L103.129 110.581L103.263 110.812L62.6929 134.24L62.5595 134.009ZM103.132 110.58C104.162 110.01 104.626 109.234 104.669 108.45L104.935 108.465C104.887 109.357 104.356 110.208 103.261 110.813L103.132 110.58ZM104.669 108.457L104.691 104.952L104.958 104.954L104.935 108.458L104.669 108.457ZM104.835 105.086L102.257 105.29L102.236 105.024L104.814 104.82L104.835 105.086ZM102.183 105.274C100.825 104.551 99.1551 104.153 97.5358 104.105C95.9152 104.058 94.359 104.361 93.2221 105.023L93.0879 104.792C94.2809 104.098 95.8908 103.79 97.5436 103.839C99.1978 103.888 100.909 104.293 102.309 105.039L102.183 105.274ZM93.2217 105.023L58.8478 124.857L58.7146 124.626L93.0884 104.792L93.2217 105.023ZM58.8479 124.857L53.1728 128.135L53.0394 127.904L58.7145 124.626L58.8479 124.857ZM52.9744 128.04L52.8613 127.317L53.1248 127.275L53.2379 127.999L52.9744 128.04ZM52.9931 127.429H50.957V127.163H52.9931V127.429Z" fill="#DDE4F1" mask="url(#path-3-inside-1_37_865)"/>
<mask id="path-5-inside-2_37_865" fill="white">
<path d="M50.957 127.296V130.892C51.07 131.887 51.8171 132.927 53.2414 133.74C55.1866 134.871 57.8324 135.301 60.0714 134.962V124.741H58.7812L53.1061 128.02L52.9931 127.296H50.957Z"/>
</mask>
<path d="M50.957 127.296V130.892C51.07 131.887 51.8171 132.927 53.2414 133.74C55.1866 134.871 57.8324 135.301 60.0714 134.962V124.741H58.7812L53.1061 128.02L52.9931 127.296H50.957Z" fill="#DFCFB5"/>
<path d="M50.957 130.892L50.8245 130.907L50.8236 130.899V130.892H50.957ZM53.2414 133.74L53.3075 133.625L53.3084 133.625L53.2414 133.74ZM60.0714 134.962H60.2047V135.076L60.0913 135.094L60.0714 134.962ZM60.0714 124.741V124.608H60.2047V124.741H60.0714ZM58.7812 124.741L58.7145 124.626L58.7455 124.608H58.7812V124.741ZM53.1061 128.02L53.1728 128.135L53.0044 128.233L52.9744 128.04L53.1061 128.02ZM52.9931 127.296V127.163H53.1072L53.1248 127.275L52.9931 127.296ZM51.0903 127.296V130.892H50.8236V127.296H51.0903ZM51.0895 130.877C51.1961 131.815 51.9052 132.824 53.3075 133.625L53.1752 133.856C51.7289 133.03 50.944 131.959 50.8245 130.907L51.0895 130.877ZM53.3084 133.625C55.2249 134.739 57.8395 135.165 60.0514 134.83L60.0913 135.094C57.8253 135.437 55.1483 135.003 53.1744 133.856L53.3084 133.625ZM59.938 134.962V124.741H60.2047V134.962H59.938ZM60.0714 124.874H58.7812V124.608H60.0714V124.874ZM58.8479 124.857L53.1728 128.135L53.0394 127.904L58.7145 124.626L58.8479 124.857ZM52.9744 128.04L52.8613 127.317L53.1248 127.275L53.2379 127.999L52.9744 128.04ZM52.9931 127.429H50.957V127.163H52.9931V127.429Z" fill="#DDE4F1" mask="url(#path-5-inside-2_37_865)"/>
<mask id="path-7-inside-3_37_865" fill="white">
<path d="M62.6257 130.74L103.205 107.312C105.61 105.924 105.308 103.499 102.531 101.896V101.895C99.7541 100.292 95.5541 100.119 93.1492 101.507L52.5699 124.935C50.1651 126.324 50.4673 128.749 53.2441 130.352C56.0208 131.955 60.2209 132.129 62.6257 130.74Z"/>
</mask>
<path d="M62.6257 130.74L103.205 107.312C105.61 105.924 105.308 103.499 102.531 101.896V101.895C99.7541 100.292 95.5541 100.119 93.1492 101.507L52.5699 124.935C50.1651 126.324 50.4673 128.749 53.2441 130.352C56.0208 131.955 60.2209 132.129 62.6257 130.74Z" fill="white"/>
<path d="M103.205 107.312L103.138 107.197L103.138 107.197L103.205 107.312ZM102.531 101.896L102.464 102.011L102.398 101.973V101.896H102.531ZM102.531 101.895L102.598 101.779L102.664 101.818V101.895H102.531ZM93.1492 101.507L93.0825 101.392L93.0826 101.392L93.1492 101.507ZM52.5699 124.935L52.6366 125.051L52.6366 125.051L52.5699 124.935ZM62.5591 130.625L103.138 107.197L103.272 107.428L62.6924 130.856L62.5591 130.625ZM103.138 107.197C104.309 106.521 104.792 105.613 104.679 104.701C104.564 103.779 103.834 102.802 102.464 102.011L102.598 101.78C104.005 102.593 104.814 103.63 104.943 104.668C105.074 105.716 104.506 106.715 103.272 107.428L103.138 107.197ZM102.398 101.896V101.895H102.664V101.896H102.398ZM102.464 102.01C101.098 101.222 99.3753 100.782 97.6951 100.712C96.0136 100.643 94.3897 100.945 93.2159 101.623L93.0826 101.392C94.3135 100.681 95.9921 100.375 97.7061 100.446C99.4213 100.517 101.187 100.965 102.598 101.779L102.464 102.01ZM93.2159 101.623L52.6366 125.051L52.5033 124.82L93.0825 101.392L93.2159 101.623ZM52.6366 125.051C51.4659 125.727 50.9826 126.635 51.0962 127.547C51.211 128.469 51.9414 129.446 53.3107 130.236L53.1774 130.467C51.7699 129.655 50.9608 128.618 50.8316 127.58C50.701 126.531 51.2691 125.532 52.5033 124.82L52.6366 125.051ZM53.3107 130.236C54.6773 131.025 56.3997 131.465 58.0799 131.535C59.7613 131.604 61.3852 131.303 62.5591 130.625L62.6924 130.856C61.4614 131.567 59.7828 131.872 58.0688 131.801C56.3536 131.73 54.5876 131.281 53.1774 130.467L53.3107 130.236Z" fill="#DDE4F1" mask="url(#path-7-inside-3_37_865)"/>
<path d="M245.369 121.895L245.356 121.873L245.342 121.879L182.567 85.6349L9.08185 185.527L227.132 311.37L400.616 211.479L245.369 121.895Z" fill="#61A1FF"/>
<path d="M126.408 130.107L50.6647 86.3773L172.257 16.1282L248 59.8594L126.408 130.107Z" fill="#2F6FEB"/>
<path d="M126.408 220.783V130.108L248 59.8597V150.535L126.408 220.783Z" fill="#1151CD"/>
<path d="M160.037 136.989L133.631 152.234V212.337L160.037 197.091V136.989Z" fill="#F7F7FD" stroke="#DDE4F1" stroke-width="0.133333"/>
<path d="M50.6647 177.053V86.3775L126.408 130.108V220.783L50.6647 177.053Z" fill="#2F6FEB"/>
<path d="M71.0011 113.843L60.9941 108.078V166.224L71.0011 171.99V113.843Z" fill="#F7F7FD" stroke="#DDE4F1" stroke-width="0.133333"/>
<mask id="path-15-inside-4_37_865" fill="white">
<path d="M75.1125 116.148V174.448L85.2518 180.29V121.989L75.1125 116.148Z"/>
</mask>
<path d="M75.1125 116.148V174.448L85.2518 180.29V121.989L75.1125 116.148Z" fill="#F7F7FD"/>
<path d="M75.1125 174.448L75.046 174.563L74.9792 174.525V174.448H75.1125ZM85.2518 180.29H85.3851V180.52L85.1852 180.405L85.2518 180.29ZM85.2518 121.989L85.3184 121.873L85.3851 121.912V121.989H85.2518ZM75.2459 116.148V174.448H74.9792V116.148H75.2459ZM75.1791 174.332L85.3184 180.174L85.1852 180.405L75.046 174.563L75.1791 174.332ZM85.1185 180.29V121.989H85.3851V180.29H85.1185ZM85.1853 122.104L75.046 116.263L75.1791 116.032L85.3184 121.873L85.1853 122.104Z" fill="#DDE4F1" mask="url(#path-15-inside-4_37_865)"/>
<path d="M99.3713 130.212L89.3643 124.447V182.594L99.3713 188.358V130.212Z" fill="#F7F7FD" stroke="#DDE4F1" stroke-width="0.133333"/>
<path d="M113.555 138.397L103.549 132.631V190.777L113.555 196.542V138.397Z" fill="#F7F7FD" stroke="#DDE4F1" stroke-width="0.133333"/>
<path d="M271.459 167.424L166.21 107.052L247.996 59.8545L353.245 120.227L271.459 167.424Z" fill="#1151CD"/>
<path d="M271.459 258.174V167.425L353.245 120.229V210.976L271.459 258.174Z" fill="#1151CD"/>
<path d="M166.21 197.801V107.054L271.459 167.425V258.174L166.21 197.801Z" fill="#2F6FEB"/>
<mask id="path-22-inside-5_37_865" fill="white">
<path d="M264.203 247.603L173.465 195.216V135.237L264.203 187.625V247.603Z"/>
</mask>
<path d="M264.203 247.603L173.465 195.216V135.237L264.203 187.625V247.603Z" fill="#F7F7FD"/>
<path d="M173.465 195.216L173.398 195.332L173.331 195.293V195.216H173.465ZM173.465 135.237H173.331V135.006L173.531 135.122L173.465 135.237ZM264.203 187.625L264.27 187.51L264.337 187.548V187.625H264.203ZM264.137 247.718L173.398 195.332L173.531 195.101L264.27 247.488L264.137 247.718ZM173.331 195.216V135.237H173.598V195.216H173.331ZM173.531 135.122L264.27 187.51L264.137 187.741L173.398 135.353L173.531 135.122ZM264.337 187.625V247.603H264.07V187.625H264.337Z" fill="#DDE4F1" mask="url(#path-22-inside-5_37_865)"/>
<path d="M146.706 129.717L142.564 125.02L161.415 114.129L166.21 116.879V118.913L146.706 129.717Z" fill="#0747C3"/>
<mask id="path-25-inside-6_37_865" fill="white">
<path d="M166.21 118.913V116.879L166.218 116.884L166.219 118.908L166.21 118.913Z"/>
</mask>
<path d="M166.21 118.913V116.879L166.218 116.884L166.219 118.908L166.21 118.913Z" fill="#013BA1"/>
<path d="M166.21 116.879H166.076V116.639L166.28 116.766L166.21 116.879ZM166.218 116.884L166.289 116.771L166.351 116.81L166.351 116.884L166.218 116.884ZM166.219 118.908L166.352 118.908L166.352 118.986L166.284 119.024L166.219 118.908ZM166.076 118.913V116.879H166.343V118.913H166.076ZM166.28 116.766L166.289 116.771L166.148 116.998L166.139 116.992L166.28 116.766ZM166.351 116.884L166.352 118.908L166.086 118.908L166.085 116.884L166.351 116.884ZM166.284 119.024L166.274 119.03L166.145 118.796L166.154 118.791L166.284 119.024Z" fill="#DDE4F1" mask="url(#path-25-inside-6_37_865)"/>
<path d="M169.09 17.0118L47.9411 87.0044L91.4337 75.3965L212.583 5.40393L169.09 17.0118Z" fill="#5598E9" stroke="#DDE4F1" stroke-width="0.133333"/>
<path d="M249.885 62.9385L213.03 5.29848L91.5528 75.4808L128.409 133.121L249.885 62.9385Z" fill="#3F461D" stroke="#DDE4F1" stroke-width="0.133333"/>
<path d="M249.98 58.7117V62.9614L128.388 133.21V128.96L249.98 58.7117Z" fill="#1151CD"/>
<path d="M102.314 106.811L88.4947 87.222L62.2388 93.0598L50.6647 86.3778L52.8075 85.7755L91.4595 75.4598L110.058 104.546L102.314 106.811Z" fill="#0747C3"/>
<path d="M50.6678 95.6318L50.6647 86.377L62.2388 93.059L50.6678 95.6318Z" fill="#0747C3"/>
<mask id="path-32-inside-7_37_865" fill="white">
<path d="M52.8073 85.7749L91.2903 74.9647L91.4593 75.2299V75.4592L52.8073 85.7749Z"/>
</mask>
<path d="M52.8073 85.7749L91.2903 74.9647L91.4593 75.2299V75.4592L52.8073 85.7749Z" fill="#073CAE"/>
<path d="M91.2903 74.9647L91.2542 74.8363L91.3495 74.8096L91.4027 74.893L91.2903 74.9647ZM91.4593 75.2299L91.5718 75.1582L91.5927 75.191V75.2299H91.4593ZM91.4593 75.4592H91.5927V75.5616L91.4937 75.588L91.4593 75.4592ZM52.7713 85.6465L91.2542 74.8363L91.3263 75.0931L52.8434 85.9033L52.7713 85.6465ZM91.4027 74.893L91.5718 75.1582L91.3469 75.3016L91.1779 75.0364L91.4027 74.893ZM91.5927 75.2299V75.4592H91.326V75.2299H91.5927ZM91.4937 75.588L52.8417 85.9037L52.7729 85.6461L91.425 75.3304L91.4937 75.588Z" fill="#DDE4F1" mask="url(#path-32-inside-7_37_865)"/>
<path d="M47.4714 82.9482L91.4594 71.2093L213.053 0.96019L169.065 12.6992L47.4714 82.9482Z" fill="#5797FF"/>
<path d="M128.387 128.96L91.4591 71.209L213.052 0.959946L249.979 58.7124L128.387 128.96Z" fill="#2F6FEB"/>
<path d="M153.133 97.4087L132.292 89.9606L132.294 76.2764L149.627 82.6753L157.478 91.5434L153.133 97.4087Z" fill="#0747C3"/>
<mask id="path-37-inside-8_37_865" fill="white">
<path d="M132.292 75.2173L124.757 70.8672L132.245 66.5435L139.78 70.8947L132.292 75.2173Z"/>
</mask>
<path d="M132.292 75.2173L124.757 70.8672L132.245 66.5435L139.78 70.8947L132.292 75.2173Z" fill="#2F6FEB"/>
<path d="M124.757 70.8672L124.69 70.9827L124.49 70.8672L124.69 70.7517L124.757 70.8672ZM132.245 66.5435L132.179 66.428L132.245 66.3895L132.312 66.428L132.245 66.5435ZM139.78 70.8947L139.847 70.7792L140.047 70.8947L139.847 71.0101L139.78 70.8947ZM132.225 75.3328L124.69 70.9827L124.824 70.7517L132.358 75.1018L132.225 75.3328ZM124.69 70.7517L132.179 66.428L132.312 66.659L124.824 70.9827L124.69 70.7517ZM132.312 66.428L139.847 70.7792L139.713 71.0101L132.179 66.659L132.312 66.428ZM139.847 71.0101L132.358 75.3328L132.225 75.1018L139.713 70.7792L139.847 71.0101Z" fill="#DDE4F1" mask="url(#path-37-inside-8_37_865)"/>
<path d="M132.294 75.1768L124.2 70.5023L132.243 65.8585L140.338 70.5319L132.294 75.1768Z" fill="#5797FF"/>
<path d="M132.294 76.5815L140.339 71.9367V70.5314L132.294 75.1763V76.5815Z" fill="#2F6FEB"/>
<path d="M124.2 71.9081L132.294 76.5815V75.1763L124.2 70.5018V71.9081Z" fill="#2F6FEB"/>
<path d="M137.58 70.8849L132.283 73.9502L132.266 73.9322L126.968 70.8681L132.248 67.8208L132.266 67.8387L137.58 70.8849Z" fill="#2F6FEB"/>
<path d="M137.579 70.885L132.282 73.9502L132.265 73.9322V67.8387L137.579 70.885Z" fill="#2F6FEB"/>
<path d="M132.292 89.9595L139.78 85.6369V70.8939L132.292 75.2165V89.9595Z" fill="#2F6FEB"/>
<path d="M124.759 78.2543L132.292 89.9595V75.2165L124.759 70.8664V78.2543Z" fill="#5797FF"/>
<path d="M133.219 66.8298L132.289 66.2928L131.365 66.8255L132.296 67.3634L133.219 66.8298Z" fill="#2F6FEB" stroke="#DDE4F1" stroke-width="0.133333"/>
<path d="M132.296 74.8184L133.353 74.2087V66.8293L132.296 67.44V74.8184Z" fill="#2F6FEB"/>
<path d="M131.232 74.2045L132.296 74.8184V67.44L131.232 66.8251V74.2045Z" fill="#5797FF"/>
<path d="M132.873 67.0301L132.285 66.6982L131.713 67.0264L132.297 67.3634L132.873 67.0301Z" fill="#096EA8" stroke="#DDE4F1" stroke-width="0.133333"/>
<path d="M132.304 69.7041L132.296 69.6999V67.4408L133.008 67.0298L133.35 67.2221V69.1029L132.304 69.7041Z" fill="#093B7D"/>
<path d="M132.296 69.6997L131.236 69.0826V67.2219L131.579 67.0265L132.296 67.4407V69.6997Z" fill="#096EA8"/>
<path d="M139.652 63.1125L138.72 62.5755L137.797 63.1092L138.727 63.6462L139.652 63.1125Z" fill="#2F6FEB" stroke="#DDE4F1" stroke-width="0.133333"/>
<path d="M138.727 71.1016L139.784 70.4919V63.1125L138.727 63.7232V71.1016Z" fill="#2F6FEB"/>
<path d="M137.663 70.4877L138.727 71.1016V63.7232L137.663 63.1093V70.4877Z" fill="#2F6FEB"/>
<mask id="path-55-inside-9_37_865" fill="white">
<path d="M138.727 63.7231L138.005 63.3069L138.467 63.0353L139.186 63.4579L138.727 63.7231Z"/>
</mask>
<path d="M138.727 63.7231L138.005 63.3069L138.467 63.0353L139.186 63.4579L138.727 63.7231Z" fill="#096EA8"/>
<path d="M138.005 63.3069L137.938 63.4224L137.739 63.3079L137.937 63.1919L138.005 63.3069ZM138.467 63.0353L138.4 62.9203L138.467 62.8807L138.535 62.9204L138.467 63.0353ZM139.186 63.4579L139.253 63.343L139.451 63.4589L139.253 63.5734L139.186 63.4579ZM138.661 63.8387L137.938 63.4224L138.071 63.1913L138.794 63.6076L138.661 63.8387ZM137.937 63.1919L138.4 62.9203L138.535 63.1503L138.072 63.4219L137.937 63.1919ZM138.535 62.9204L139.253 63.343L139.118 63.5729L138.4 63.1502L138.535 62.9204ZM139.253 63.5734L138.794 63.8386L138.661 63.6077L139.119 63.3425L139.253 63.5734Z" fill="#DDE4F1" mask="url(#path-55-inside-9_37_865)"/>
<path d="M138.727 65.9922V63.7236L139.185 63.4584L139.784 63.8103V65.3815L138.727 65.9922Z" fill="#093B7D"/>
<path d="M138.723 65.9937L137.673 65.5055V63.5011L138.005 63.3067L138.727 63.723V65.9915L138.723 65.9937Z" fill="#096EA8"/>
<path d="M126.745 63.0944L125.815 62.5565L124.89 63.0902L125.822 63.6271L126.745 63.0944Z" fill="#2F6FEB" stroke="#DDE4F1" stroke-width="0.133333"/>
<path d="M125.822 71.084L126.879 70.4733V63.0949L125.822 63.7046V71.084Z" fill="#5797FF"/>
<path d="M124.757 70.469L125.822 71.084V63.7046L124.757 63.0907V70.469Z" fill="#5797FF"/>
<path d="M126.4 63.2942L126.062 63.0926L125.482 63.4311L125.823 63.6272L126.4 63.2942Z" fill="#096EA8" stroke="#DDE4F1" stroke-width="0.133333"/>
<path d="M125.822 65.9707V63.7043L126.531 63.2953L126.876 63.5014V65.3822L125.822 65.9707Z" fill="#093B7D"/>
<path d="M125.819 65.9717L124.764 65.361V63.7718L125.349 63.4316L125.822 63.7042V65.9706L125.819 65.9717Z" fill="#096EA8"/>
<mask id="path-65-inside-10_37_865" fill="white">
<path d="M132.297 67.4292L123.394 62.2888L132.241 57.1811L141.145 62.3204L132.297 67.4292Z"/>
</mask>
<path d="M132.297 67.4292L123.394 62.2888L132.241 57.1811L141.145 62.3204L132.297 67.4292Z" fill="white"/>
<path d="M123.394 62.2888L123.328 62.4042L123.128 62.2888L123.328 62.1733L123.394 62.2888ZM132.241 57.1811L132.175 57.0656L132.241 57.0271L132.308 57.0656L132.241 57.1811ZM141.145 62.3204L141.211 62.205L141.411 62.3204L141.211 62.4359L141.145 62.3204ZM132.231 67.5447L123.328 62.4042L123.461 62.1733L132.364 67.3137L132.231 67.5447ZM123.328 62.1733L132.175 57.0656L132.308 57.2965L123.461 62.4042L123.328 62.1733ZM132.308 57.0656L141.211 62.205L141.078 62.4359L132.175 57.2966L132.308 57.0656ZM141.211 62.4359L132.364 67.5447L132.231 67.3137L141.078 62.205L141.211 62.4359Z" fill="#DDE4F1" mask="url(#path-65-inside-10_37_865)"/>
<path d="M132.298 68.9761L141.145 63.8673V62.3215L132.298 67.4303V68.9761Z" fill="#2F6FEB"/>
<path d="M123.394 63.8356L132.297 68.9761V67.4303L123.394 62.2898V63.8356Z" fill="#5797FF"/>
<path d="M299.417 143.839L194.288 83.5352L161.467 114.082L266.596 174.385L299.417 143.839Z" fill="#5598E9" stroke="#DDE4F1" stroke-width="0.133333"/>
<mask id="path-70-inside-11_37_865" fill="white">
<path d="M253.019 61.9982L214.383 48.0097L319.634 108.383L358.269 122.371L253.019 61.9982Z"/>
</mask>
<path d="M253.019 61.9982L214.383 48.0097L319.634 108.383L358.269 122.371L253.019 61.9982Z" fill="#DDB79B"/>
<path d="M214.383 48.0097L214.317 48.1254L214.429 47.8843L214.383 48.0097ZM319.634 108.383L319.588 108.508L319.577 108.504L319.567 108.498L319.634 108.383ZM358.269 122.371L358.335 122.255L358.223 122.496L358.269 122.371ZM252.974 62.1236L214.338 48.1351L214.429 47.8843L253.065 61.8729L252.974 62.1236ZM214.45 47.8941L319.7 108.267L319.567 108.498L214.317 48.1254L214.45 47.8941ZM319.679 108.257L358.314 122.246L358.223 122.496L319.588 108.508L319.679 108.257ZM358.203 122.487L252.953 62.1139L253.086 61.8826L358.335 122.255L358.203 122.487Z" fill="#DDE4F1" mask="url(#path-70-inside-11_37_865)"/>
<mask id="path-72-inside-12_37_865" fill="white">
<path d="M319.634 108.383L299.528 143.826L194.279 83.4533L214.384 48.0102L319.634 108.383Z"/>
</mask>
<path d="M319.634 108.383L299.528 143.826L194.279 83.4533L214.384 48.0102L319.634 108.383Z" fill="#433E44"/>
<path d="M299.528 143.826L299.644 143.892L299.578 144.008L299.462 143.942L299.528 143.826ZM194.279 83.4533L194.212 83.5689L194.097 83.5029L194.163 83.3875L194.279 83.4533ZM214.384 48.0102L214.268 47.9444L214.334 47.8279L214.45 47.8945L214.384 48.0102ZM319.75 108.449L299.644 143.892L299.412 143.76L319.518 108.317L319.75 108.449ZM299.462 143.942L194.212 83.5689L194.345 83.3376L299.594 143.711L299.462 143.942ZM194.163 83.3875L214.268 47.9444L214.5 48.076L194.394 83.5191L194.163 83.3875ZM214.45 47.8945L319.701 108.267L319.568 108.499L214.317 48.1259L214.45 47.8945Z" fill="#DDE4F1" mask="url(#path-72-inside-12_37_865)"/>
<mask id="path-74-inside-13_37_865" fill="white">
<path d="M271.462 179.264L271.459 169.951V179.176L271.462 179.173V179.264Z"/>
</mask>
<path d="M271.462 179.264L271.459 169.951V179.176L271.462 179.173V179.264Z" fill="#02288E"/>
<path d="M271.462 179.264H271.596L271.329 179.264L271.462 179.264ZM271.459 169.951H271.326L271.593 169.951L271.459 169.951ZM271.459 179.176L271.554 179.27L271.326 179.502V179.176H271.459ZM271.462 179.173L271.367 179.08L271.596 178.848V179.173H271.462ZM271.329 179.264L271.326 169.951L271.593 169.951L271.596 179.264L271.329 179.264ZM271.593 169.951V179.176H271.326V169.951H271.593ZM271.364 179.083L271.367 179.08L271.557 179.267L271.554 179.27L271.364 179.083ZM271.596 179.173V179.264H271.329V179.173H271.596Z" fill="#DDE4F1" mask="url(#path-74-inside-13_37_865)"/>
<path d="M271.462 179.264L166.219 118.908V116.886L266.605 174.468L271.459 169.951V179.262" fill="#0747C3"/>
<path d="M166.388 107.083L166.286 107.142V109.415L167.876 107.936L166.388 107.083Z" fill="#02288E" stroke="#DDE4F1" stroke-width="0.133333"/>
<mask id="path-78-inside-14_37_865" fill="white">
<path d="M166.219 107.103V106.908L166.389 107.005L166.219 107.103Z"/>
</mask>
<path d="M166.219 107.103V106.908L166.389 107.005L166.219 107.103Z" fill="#0852BE"/>
<path d="M166.219 107.103L166.285 107.219L166.086 107.333V107.103H166.219ZM166.219 106.908H166.086V106.677L166.285 106.792L166.219 106.908ZM166.389 107.005L166.455 106.89L166.656 107.005L166.455 107.121L166.389 107.005ZM166.086 107.103V106.908H166.352V107.103H166.086ZM166.285 106.792L166.455 106.89L166.322 107.121L166.153 107.023L166.285 106.792ZM166.455 107.121L166.285 107.219L166.153 106.987L166.322 106.89L166.455 107.121Z" fill="#DDE4F1" mask="url(#path-78-inside-14_37_865)"/>
<mask id="path-80-inside-15_37_865" fill="white">
<path d="M266.605 174.468L166.219 116.885V109.568L167.988 107.923L271.462 167.265L271.459 169.951L266.605 174.468Z"/>
</mask>
<path d="M266.605 174.468L166.219 116.885V109.568L167.988 107.923L271.462 167.265L271.459 169.951L266.605 174.468Z" fill="#073CAE"/>
<path d="M166.219 116.885L166.153 117.001L166.086 116.963V116.885H166.219ZM166.219 109.568H166.086V109.51L166.128 109.471L166.219 109.568ZM167.988 107.923L167.897 107.826L167.969 107.759L168.054 107.807L167.988 107.923ZM271.462 167.265L271.528 167.149L271.596 167.188L271.595 167.265L271.462 167.265ZM271.459 169.951L271.592 169.951L271.592 170.009L271.55 170.048L271.459 169.951ZM266.539 174.583L166.153 117.001L166.285 116.77L266.671 174.352L266.539 174.583ZM166.086 116.885V109.568H166.352V116.885H166.086ZM166.128 109.471L167.897 107.826L168.079 108.021L166.31 109.666L166.128 109.471ZM168.054 107.807L271.528 167.149L271.396 167.38L167.921 108.039L168.054 107.807ZM271.595 167.265L271.592 169.951L271.326 169.951L271.329 167.265L271.595 167.265ZM271.55 170.048L266.696 174.565L266.514 174.37L271.368 169.853L271.55 170.048Z" fill="#DDE4F1" mask="url(#path-80-inside-15_37_865)"/>
<path d="M278.602 163.304L299.528 143.826L319.635 108.383L317.843 107.355L319.635 108.383L352.9 120.427L343.007 126.136L319.635 117.684L301.131 150.301L278.602 163.304Z" fill="#0747C3"/>
<path d="M271.462 179.173V169.948L278.602 163.304L301.131 150.301L299.528 153.128L271.462 179.173ZM353.242 129.838L343.007 126.137L352.9 120.428L353.242 120.551V129.838Z" fill="#0747C3"/>
<mask id="path-84-inside-16_37_865" fill="white">
<path d="M271.462 169.948V167.265L271.459 161.387L293.876 140.583L299.528 143.826L278.602 163.304L271.462 169.948Z"/>
</mask>
<path d="M271.462 169.948V167.265L271.459 161.387L293.876 140.583L299.528 143.826L278.602 163.304L271.462 169.948Z" fill="#033093"/>
<path d="M271.462 167.265L271.596 167.265V167.265H271.462ZM271.459 161.387L271.326 161.387L271.326 161.329L271.369 161.289L271.459 161.387ZM293.876 140.583L293.786 140.486L293.858 140.419L293.943 140.468L293.876 140.583ZM299.528 143.826L299.595 143.71L299.751 143.8L299.619 143.924L299.528 143.826ZM278.602 163.304L278.693 163.401L278.693 163.401L278.602 163.304ZM271.329 169.948V167.265H271.596V169.948H271.329ZM271.329 167.265L271.326 161.387L271.593 161.387L271.596 167.265L271.329 167.265ZM271.369 161.289L293.786 140.486L293.967 140.681L271.55 161.485L271.369 161.289ZM293.943 140.468L299.595 143.71L299.462 143.942L293.81 140.699L293.943 140.468ZM299.619 143.924L278.693 163.401L278.511 163.206L299.437 143.729L299.619 143.924ZM278.693 163.401L271.553 170.045L271.372 169.85L278.511 163.206L278.693 163.401Z" fill="#DDE4F1" mask="url(#path-84-inside-16_37_865)"/>
<mask id="path-86-inside-17_37_865" fill="white">
<path d="M353.242 119.487L319.499 100.131L319.634 99.8945L353.242 116.354V119.487Z"/>
</mask>
<path d="M353.242 119.487L319.499 100.131L319.634 99.8945L353.242 116.354V119.487Z" fill="url(#paint0_linear_37_865)"/>
<path d="M319.499 100.131L319.432 100.247L319.317 100.181L319.383 100.065L319.499 100.131ZM319.634 99.8945L319.518 99.8284L319.58 99.7197L319.693 99.7748L319.634 99.8945ZM353.242 116.354L353.3 116.235L353.375 116.271V116.354H353.242ZM353.175 119.603L319.432 100.247L319.565 100.016L353.308 119.372L353.175 119.603ZM319.383 100.065L319.518 99.8284L319.75 99.9607L319.615 100.197L319.383 100.065ZM319.693 99.7748L353.3 116.235L353.183 116.474L319.575 100.014L319.693 99.7748ZM353.375 116.354V119.487H353.108V116.354H353.375Z" fill="#DDE4F1" mask="url(#path-86-inside-17_37_865)"/>
<mask id="path-88-inside-18_37_865" fill="white">
<path d="M353.242 120.552L352.9 120.429L319.634 108.384L317.842 107.356L319.634 104.198L317.792 103.141L319.499 100.133L353.242 119.489V120.552Z"/>
</mask>
<path d="M353.242 120.552L352.9 120.429L319.634 108.384L317.842 107.356L319.634 104.198L317.792 103.141L319.499 100.133L353.242 119.489V120.552Z" fill="#073962"/>
<path d="M352.9 120.429L352.854 120.554L352.854 120.554L352.9 120.429ZM319.634 108.384L319.589 108.51L319.578 108.506L319.568 108.5L319.634 108.384ZM317.842 107.356L317.776 107.472L317.661 107.406L317.726 107.29L317.842 107.356ZM319.634 104.198L319.701 104.082L319.816 104.148L319.75 104.264L319.634 104.198ZM317.792 103.141L317.726 103.257L317.611 103.191L317.677 103.076L317.792 103.141ZM319.499 100.133L319.383 100.067L319.449 99.9508L319.565 100.017L319.499 100.133ZM353.242 119.489L353.308 119.374L353.375 119.412V119.489H353.242ZM353.197 120.678L352.854 120.554L352.945 120.303L353.287 120.427L353.197 120.678ZM352.854 120.554L319.589 108.51L319.68 108.259L352.945 120.303L352.854 120.554ZM319.568 108.5L317.776 107.472L317.909 107.24L319.701 108.269L319.568 108.5ZM317.726 107.29L319.518 104.132L319.75 104.264L317.958 107.422L317.726 107.29ZM319.568 104.314L317.726 103.257L317.859 103.026L319.701 104.082L319.568 104.314ZM317.677 103.076L319.383 100.067L319.615 100.199L317.908 103.207L317.677 103.076ZM319.565 100.017L353.308 119.374L353.176 119.605L319.433 100.249L319.565 100.017ZM353.375 119.489V120.552H353.109V119.489H353.375Z" fill="#DDE4F1" mask="url(#path-88-inside-18_37_865)"/>
<mask id="path-90-inside-19_37_865" fill="white">
<path d="M299.528 143.826L293.876 140.583L296.664 137.996L299.528 139.639L317.843 107.355L319.635 108.383L299.528 143.826Z"/>
</mask>
<path d="M299.528 143.826L293.876 140.583L296.664 137.996L299.528 139.639L317.843 107.355L319.635 108.383L299.528 143.826Z" fill="#02132B"/>
<path d="M293.876 140.583L293.81 140.699L293.653 140.609L293.786 140.486L293.876 140.583ZM296.664 137.996L296.573 137.898L296.645 137.831L296.73 137.88L296.664 137.996ZM299.528 139.639L299.644 139.705L299.578 139.821L299.462 139.754L299.528 139.639ZM317.843 107.355L317.727 107.289L317.793 107.173L317.909 107.239L317.843 107.355ZM319.635 108.383L319.701 108.267L319.816 108.333L319.751 108.449L319.635 108.383ZM299.462 143.942L293.81 140.699L293.943 140.468L299.595 143.711L299.462 143.942ZM293.786 140.486L296.573 137.898L296.755 138.093L293.967 140.681L293.786 140.486ZM296.73 137.88L299.595 139.523L299.462 139.754L296.597 138.111L296.73 137.88ZM299.412 139.573L317.727 107.289L317.959 107.421L299.644 139.705L299.412 139.573ZM317.909 107.239L319.701 108.267L319.568 108.499L317.776 107.471L317.909 107.239ZM319.751 108.449L299.644 143.892L299.412 143.76L319.519 108.317L319.751 108.449Z" fill="#DDE4F1" mask="url(#path-90-inside-19_37_865)"/>
<mask id="path-92-inside-20_37_865" fill="white">
<path d="M271.459 179.177V169.952L271.462 169.949V179.174L271.459 179.177Z"/>
</mask>
<path d="M271.459 179.177V169.952L271.462 169.949V179.174L271.459 179.177Z" fill="#000D5A"/>
<path d="M271.459 179.177L271.554 179.271L271.326 179.503V179.177H271.459ZM271.459 169.952H271.326V169.897L271.364 169.858L271.459 169.952ZM271.462 169.949L271.367 169.855L271.596 169.623V169.949H271.462ZM271.462 179.174H271.596V179.229L271.557 179.268L271.462 179.174ZM271.326 179.177V169.952H271.593V179.177H271.326ZM271.364 169.858L271.367 169.855L271.557 170.042L271.554 170.045L271.364 169.858ZM271.596 169.949V179.174H271.329V169.949H271.596ZM271.557 179.268L271.554 179.271L271.364 179.084L271.367 179.081L271.557 179.268Z" fill="#DDE4F1" mask="url(#path-92-inside-20_37_865)"/>
<mask id="path-94-inside-21_37_865" fill="white">
<path d="M271.459 169.952V167.264L271.462 167.266V169.949L271.459 169.952Z"/>
</mask>
<path d="M271.459 169.952V167.264L271.462 167.266V169.949L271.459 169.952Z" fill="#00136E"/>
<path d="M271.459 169.952L271.554 170.046L271.326 170.278V169.952H271.459ZM271.459 167.264H271.326V167.014L271.533 167.153L271.459 167.264ZM271.462 167.266L271.537 167.155L271.596 167.195V167.266H271.462ZM271.462 169.949H271.596V170.004L271.557 170.042L271.462 169.949ZM271.326 169.952V167.264H271.593V169.952H271.326ZM271.533 167.153L271.537 167.155L271.388 167.377L271.385 167.375L271.533 167.153ZM271.596 167.266V169.949H271.329V167.266H271.596ZM271.557 170.042L271.554 170.046L271.364 169.859L271.367 169.855L271.557 170.042Z" fill="#DDE4F1" mask="url(#path-94-inside-21_37_865)"/>
<path d="M266.605 170.282L161.356 109.908L194.279 79.2675L299.528 139.64L266.605 170.282Z" fill="#2F6FEB"/>
<path d="M253.019 57.8107L214.383 43.8232L319.634 104.196L358.269 118.184L253.019 57.8107Z" fill="#2F6FEB"/>
<path d="M319.634 104.197L299.528 139.639L194.279 79.2674L214.384 43.8243L319.634 104.197Z" fill="#5797FF"/>
<path d="M91.4594 71.2089V75.4587L47.4714 87.1987V82.9479L91.4594 71.2089Z" fill="#2F6FEB"/>
<path d="M91.4591 71.2083V75.458L128.387 133.21V128.96L91.4591 71.2083Z" fill="#2F6FEB"/>
<path d="M358.27 122.371V118.184L319.634 104.196L299.528 139.64L266.605 170.281V174.468L299.528 143.826L319.634 108.383L358.27 122.371Z" fill="#2F6FEB"/>
<path d="M266.605 174.468V170.281L161.356 109.907V114.095L266.605 174.468Z" fill="#2F6FEB"/>
<path d="M223.714 91.1362V69.4798L217.773 66.0469L216.537 54.4231H223.714L245.794 66.7168L245.419 69.8993L239.753 79.1162L223.714 91.1362Z" fill="#0747C3"/>
<path d="M230.956 66.1716V78.4526L223.714 91.1362V69.4798L230.956 66.1716Z" fill="#2F6FEB"/>
<path d="M223.714 91.1362L209.358 82.8408V61.1854L223.714 69.4798V91.1362Z" fill="#2F6FEB"/>
<path d="M232.811 62.7029L216.803 53.4538L205.698 59.6649L221.705 68.914L232.811 62.7029Z" fill="#5797FF" stroke="#DDE4F1" stroke-width="0.133333"/>
<path d="M221.704 68.2729L205.564 58.9451L216.804 52.6583L232.946 61.985L221.704 68.2729Z" fill="white"/>
<path d="M222.784 70.7285L230.957 66.1713L232.946 62.7046L221.705 68.9914L222.784 70.7285Z" fill="#2F6FEB"/>
<path d="M205.564 59.6647L206.643 61.4007L222.784 70.7285L221.704 68.9914L205.564 59.6647Z" fill="#2F6FEB"/>
<path d="M221.705 68.9907V68.2722L232.946 61.9843V62.7039L221.705 68.9907Z" fill="#2F6FEB"/>
<path d="M221.704 68.9907V68.2722L205.564 58.9444V59.664L221.704 68.9907Z" fill="#5797FF"/>
<path d="M210.634 82.48V65.2973L222.441 72.1093V89.292L210.634 82.48Z" fill="#2F6FEB"/>
<path d="M220.99 72.9459L212.084 67.8147V81.644L220.99 86.7753V72.9459Z" fill="white" stroke="#DDE4F1" stroke-width="0.133333"/>
<path d="M213.575 68.5985V81.0201L221.057 85.3279V86.8906L212.017 81.6836V67.6993L213.575 68.5985Z" fill="#2F6FEB"/>
<path d="M213.575 81.0201L212.017 81.6836L221.057 86.8906V85.3279L213.575 81.0201Z" fill="#5797FF"/>
<path d="M214.727 81.6841H212.017L213.575 81.0205V68.599L214.757 69.2784L214.727 81.6841Z" fill="#0C59BE"/>
<path d="M254.039 108.499L248.891 90.8784L246.861 71.7854H254.039L276.119 84.0791L275.744 87.2616L270.076 96.4785L254.039 108.499Z" fill="#0747C3"/>
<path d="M261.28 83.5328V95.8149L254.039 108.499V86.8432L261.28 83.5328Z" fill="#2F6FEB"/>
<path d="M254.039 108.499L239.682 100.203V78.5477L254.039 86.8432V108.499Z" fill="#2F6FEB"/>
<path d="M263.135 80.0687L247.128 70.8186L236.022 77.0297L252.03 86.2788L263.135 80.0687Z" fill="#5797FF" stroke="#DDE4F1" stroke-width="0.133333"/>
<path d="M252.029 85.6343L235.887 76.3075L247.129 70.0206L263.269 79.3474L252.029 85.6343Z" fill="white"/>
<path d="M253.108 88.0918L261.281 83.5335L263.269 80.0689L252.029 86.3547L253.108 88.0918Z" fill="#2F6FEB"/>
<path d="M235.887 77.0279L236.966 78.764L253.108 88.0918L252.029 86.3547L235.887 77.0279Z" fill="#2F6FEB"/>
<path d="M252.029 86.3555V85.6359L263.269 79.3491V80.0697L252.029 86.3555Z" fill="#2F6FEB"/>
<path d="M252.029 86.3555V85.6359L235.887 76.3092V77.0287L252.029 86.3555Z" fill="#5797FF"/>
<path d="M240.957 99.8438V82.6611L252.764 89.4731V106.656L240.957 99.8438Z" fill="#2F6FEB"/>
<path d="M251.314 90.3097L242.408 85.1784V99.0078L251.314 104.139V90.3097Z" fill="white" stroke="#DDE4F1" stroke-width="0.133333"/>
<path d="M243.899 85.9622V98.3849L251.38 102.692V104.254L242.341 99.0474V85.0631L243.899 85.9622Z" fill="#2F6FEB"/>
<path d="M243.899 98.3849L242.341 99.0474L251.38 104.254V102.692L243.899 98.3849Z" fill="#5797FF"/>
<path d="M242.341 99.0464H245.051L245.082 86.6407L243.899 85.9613V98.3839L242.341 99.0464Z" fill="#2F6FEB"/>
<path d="M284.364 125.862L279.216 108.242L277.185 89.1492H284.364L306.443 101.443L306.068 104.625L300.399 113.842L284.364 125.862Z" fill="#0747C3"/>
<path d="M291.604 100.898V113.18L284.363 125.862V104.207L291.604 100.898Z" fill="#2F6FEB"/>
<path d="M284.364 125.862L270.007 117.567V95.9115L284.364 104.207V125.862Z" fill="#2F6FEB"/>
<path d="M293.458 97.4315L277.452 88.1814L266.346 94.3925L282.352 103.642L293.458 97.4315Z" fill="#5797FF" stroke="#DDE4F1" stroke-width="0.133333"/>
<path d="M293.458 96.7123L277.452 87.4621L266.346 93.6732L282.352 102.922L293.458 96.7123Z" fill="white" stroke="#DDE4F1" stroke-width="0.133333"/>
<path d="M283.431 105.456L291.604 100.898L293.593 97.4327L282.351 103.719L283.431 105.456Z" fill="#2F6FEB"/>
<path d="M266.211 94.3918L267.291 96.1278L283.432 105.456L282.352 103.718L266.211 94.3918Z" fill="#2F6FEB"/>
<path d="M282.351 103.718V102.999L293.593 96.7129V97.4324L282.351 103.718Z" fill="#2F6FEB"/>
<path d="M282.352 103.718V102.999L266.211 93.672V94.3915L282.352 103.718Z" fill="#5797FF"/>
<path d="M271.28 117.208V100.024L283.088 106.836V124.019L271.28 117.208Z" fill="#2F6FEB"/>
<path d="M272.665 102.427V116.41L281.704 121.618V107.634L272.665 102.427Z" fill="white"/>
<path d="M274.222 103.326V115.748L281.703 120.055V121.618L272.665 116.411V102.426L274.222 103.326Z" fill="#2F6FEB"/>
<path d="M274.222 115.748L272.665 116.411L281.703 121.618V120.055L274.222 115.748Z" fill="#5797FF"/>
<path d="M272.665 116.41H275.375L275.405 104.004L274.222 103.325V115.748L272.665 116.41Z" fill="#2F6FEB"/>
<path d="M381.738 161.941V166.143L466.308 214.969V210.767L381.738 161.941Z" fill="#2F6FEB" stroke="#DDE4F1" stroke-width="0.133333"/>
<mask id="path-146-inside-22_37_865" fill="white">
<path d="M468.289 209.624L466.375 210.729L381.671 161.825L383.587 160.721L468.289 209.624Z"/>
</mask>
<path d="M468.289 209.624L466.375 210.729L381.671 161.825L383.587 160.721L468.289 209.624Z" fill="#2F6FEB"/>
<path d="M466.375 210.729L466.441 210.844L466.375 210.882L466.308 210.844L466.375 210.729ZM381.671 161.825L381.604 161.941L381.404 161.825L381.605 161.71L381.671 161.825ZM383.587 160.721L383.52 160.605L383.587 160.567L383.653 160.606L383.587 160.721ZM468.356 209.74L466.441 210.844L466.308 210.613L468.223 209.509L468.356 209.74ZM466.308 210.844L381.604 161.941L381.738 161.71L466.441 210.613L466.308 210.844ZM381.605 161.71L383.52 160.605L383.653 160.837L381.738 161.941L381.605 161.71ZM383.653 160.606L468.356 209.509L468.223 209.74L383.52 160.836L383.653 160.606Z" fill="#DDE4F1" mask="url(#path-146-inside-22_37_865)"/>
<path d="M381.738 203.539V207.742L466.308 256.567V252.365L381.738 203.539Z" fill="#2F6FEB" stroke="#DDE4F1" stroke-width="0.133333"/>
<mask id="path-149-inside-23_37_865" fill="white">
<path d="M468.289 251.222L466.375 252.326L381.671 203.423L383.587 202.319L468.289 251.222Z"/>
</mask>
<path d="M468.289 251.222L466.375 252.326L381.671 203.423L383.587 202.319L468.289 251.222Z" fill="#2F6FEB"/>
<path d="M466.375 252.326L466.441 252.441L466.375 252.48L466.308 252.441L466.375 252.326ZM381.671 203.423L381.604 203.539L381.404 203.423L381.605 203.308L381.671 203.423ZM383.587 202.319L383.52 202.204L383.587 202.165L383.653 202.204L383.587 202.319ZM468.356 251.337L466.441 252.441L466.308 252.21L468.223 251.106L468.356 251.337ZM466.308 252.441L381.604 203.539L381.738 203.308L466.441 252.21L466.308 252.441ZM381.605 203.308L383.52 202.204L383.653 202.435L381.738 203.539L381.605 203.308ZM383.653 202.204L468.356 251.106L468.223 251.337L383.52 202.435L383.653 202.204Z" fill="#DDE4F1" mask="url(#path-149-inside-23_37_865)"/>
<mask id="path-151-inside-24_37_865" fill="white">
<path d="M392.896 220.341L386.117 216.428V155.48L389.506 153.313L392.896 159.393V220.341Z"/>
</mask>
<path d="M392.896 220.341L386.117 216.428V155.48L389.506 153.313L392.896 159.393V220.341Z" fill="#2F6FEB"/>
<path d="M386.117 216.428L386.051 216.543L385.984 216.505V216.428H386.117ZM386.117 155.48H385.984V155.407L386.046 155.368L386.117 155.48ZM389.506 153.313L389.434 153.2L389.553 153.124L389.622 153.248L389.506 153.313ZM392.896 159.393L393.012 159.328L393.029 159.358V159.393H392.896ZM392.829 220.457L386.051 216.543L386.184 216.312L392.962 220.226L392.829 220.457ZM385.984 216.428V155.48H386.251V216.428H385.984ZM386.046 155.368L389.434 153.2L389.578 153.425L386.189 155.592L386.046 155.368ZM389.622 153.248L393.012 159.328L392.779 159.458L389.389 153.378L389.622 153.248ZM393.029 159.393V220.341H392.762V159.393H393.029Z" fill="#DDE4F1" mask="url(#path-151-inside-24_37_865)"/>
<path d="M392.963 159.431V220.226L394.812 219.165V158.371L392.963 159.431Z" fill="#2F6FEB" stroke="#DDE4F1" stroke-width="0.133333"/>
<mask id="path-154-inside-25_37_865" fill="white">
<path d="M392.896 159.392L394.878 158.255L391.49 152.176L389.506 153.312L392.896 159.392Z"/>
</mask>
<path d="M392.896 159.392L394.878 158.255L391.49 152.176L389.506 153.312L392.896 159.392Z" fill="#5797FF"/>
<path d="M394.878 158.255L394.995 158.19L395.059 158.305L394.945 158.371L394.878 158.255ZM391.49 152.176L391.423 152.061L391.541 151.994L391.606 152.112L391.49 152.176ZM389.506 153.312L389.39 153.377L389.326 153.262L389.44 153.197L389.506 153.312ZM392.83 159.276L394.812 158.14L394.945 158.371L392.962 159.508L392.83 159.276ZM394.762 158.32L391.373 152.241L391.606 152.112L394.995 158.19L394.762 158.32ZM391.556 152.292L389.573 153.428L389.44 153.197L391.423 152.061L391.556 152.292ZM389.623 153.247L393.013 159.327L392.78 159.457L389.39 153.377L389.623 153.247Z" fill="#DDE4F1" mask="url(#path-154-inside-25_37_865)"/>
<mask id="path-156-inside-26_37_865" fill="white">
<path d="M390.969 171.059C390.969 171.986 390.314 172.36 389.506 171.893C388.698 171.427 388.043 170.297 388.043 169.37C388.043 168.442 388.698 168.068 389.506 168.535C390.314 169.002 390.969 170.132 390.969 171.059Z"/>
</mask>
<path d="M390.969 171.059C390.969 171.986 390.314 172.36 389.506 171.893C388.698 171.427 388.043 170.297 388.043 169.37C388.043 168.442 388.698 168.068 389.506 168.535C390.314 169.002 390.969 170.132 390.969 171.059Z" fill="#004899"/>
<path d="M389.506 171.893L389.573 171.778L389.573 171.778L389.506 171.893ZM391.103 171.059C391.103 171.551 390.928 171.932 390.607 172.115C390.286 172.297 389.867 172.256 389.439 172.009L389.573 171.778C389.953 171.997 390.266 172.002 390.475 171.883C390.683 171.764 390.836 171.494 390.836 171.059H391.103ZM389.439 172.009C389.01 171.761 388.629 171.343 388.356 170.871C388.082 170.4 387.909 169.862 387.909 169.37H388.176C388.176 169.804 388.33 170.296 388.586 170.737C388.843 171.179 389.193 171.559 389.573 171.778L389.439 172.009ZM387.909 169.37C387.909 168.878 388.084 168.497 388.405 168.314C388.726 168.131 389.144 168.172 389.573 168.42L389.439 168.651C389.059 168.431 388.746 168.426 388.537 168.545C388.329 168.664 388.176 168.934 388.176 169.37H387.909ZM389.573 168.42C390.002 168.668 390.383 169.086 390.656 169.558C390.93 170.029 391.103 170.567 391.103 171.059H390.836C390.836 170.625 390.682 170.133 390.425 169.691C390.169 169.25 389.819 168.87 389.439 168.651L389.573 168.42Z" fill="#DDE4F1" mask="url(#path-156-inside-26_37_865)"/>
<path d="M389.539 212.169C389.931 212.396 390.271 212.41 390.508 212.275C390.744 212.14 390.903 211.843 390.903 211.393C390.903 210.944 390.744 210.441 390.483 209.991C390.223 209.542 389.864 209.153 389.473 208.927C389.08 208.701 388.741 208.687 388.504 208.822C388.267 208.956 388.109 209.254 388.109 209.703C388.109 210.152 388.268 210.655 388.529 211.104C388.789 211.553 389.148 211.943 389.539 212.169Z" fill="#004899" stroke="#DDE4F1" stroke-width="0.133333"/>
<mask id="path-159-inside-27_37_865" fill="white">
<path d="M403.824 226.657L397.047 222.744V161.796L400.436 159.63L403.824 165.709V226.657Z"/>
</mask>
<path d="M403.824 226.657L397.047 222.744V161.796L400.436 159.63L403.824 165.709V226.657Z" fill="#2F6FEB"/>
<path d="M397.047 222.744L396.98 222.86L396.914 222.821V222.744H397.047ZM397.047 161.796H396.914V161.723L396.975 161.684L397.047 161.796ZM400.436 159.63L400.364 159.518L400.483 159.442L400.552 159.565L400.436 159.63ZM403.824 165.709L403.941 165.644L403.957 165.674V165.709H403.824ZM403.757 226.772L396.98 222.86L397.114 222.629L403.891 226.541L403.757 226.772ZM396.914 222.744V161.796H397.18V222.744H396.914ZM396.975 161.684L400.364 159.518L400.507 159.743L397.119 161.909L396.975 161.684ZM400.552 159.565L403.941 165.644L403.708 165.774L400.319 159.695L400.552 159.565ZM403.957 165.709V226.657H403.691V165.709H403.957Z" fill="#DDE4F1" mask="url(#path-159-inside-27_37_865)"/>
<mask id="path-161-inside-28_37_865" fill="white">
<path d="M403.824 226.657L405.806 225.52V164.572L403.824 165.709V226.657Z"/>
</mask>
<path d="M403.824 226.657L405.806 225.52V164.572L403.824 165.709V226.657Z" fill="#2F6FEB"/>
<path d="M405.806 225.52H405.94V225.597L405.873 225.635L405.806 225.52ZM405.806 164.572L405.74 164.457L405.94 164.342V164.572H405.806ZM403.824 165.709H403.691V165.632L403.758 165.593L403.824 165.709ZM403.758 226.541L405.74 225.404L405.873 225.635L403.891 226.772L403.758 226.541ZM405.673 225.52V164.572H405.94V225.52H405.673ZM405.873 164.688L403.891 165.825L403.758 165.593L405.74 164.457L405.873 164.688ZM403.958 165.709V226.657H403.691V165.709H403.958Z" fill="#DDE4F1" mask="url(#path-161-inside-28_37_865)"/>
<path d="M400.525 159.656L403.849 165.619L405.716 164.548L402.392 158.585L400.525 159.656Z" fill="#5797FF" stroke="#DDE4F1" stroke-width="0.133333"/>
<mask id="path-164-inside-29_37_865" fill="white">
<path d="M401.9 177.375C401.9 178.303 401.244 178.677 400.436 178.21C399.628 177.744 398.973 176.613 398.973 175.685C398.973 174.759 399.628 174.385 400.436 174.852C401.244 175.319 401.9 176.448 401.9 177.375Z"/>
</mask>
<path d="M401.9 177.375C401.9 178.303 401.244 178.677 400.436 178.21C399.628 177.744 398.973 176.613 398.973 175.685C398.973 174.759 399.628 174.385 400.436 174.852C401.244 175.319 401.9 176.448 401.9 177.375Z" fill="#004899"/>
<path d="M400.436 178.21L400.503 178.094L400.503 178.094L400.436 178.21ZM402.033 177.375C402.033 177.867 401.858 178.248 401.537 178.431C401.216 178.614 400.798 178.572 400.369 178.325L400.503 178.094C400.883 178.314 401.196 178.319 401.405 178.199C401.614 178.08 401.766 177.81 401.766 177.375H402.033ZM400.37 178.325C399.94 178.078 399.559 177.659 399.286 177.187C399.013 176.716 398.839 176.178 398.839 175.685H399.106C399.106 176.12 399.26 176.612 399.517 177.054C399.773 177.496 400.124 177.875 400.503 178.094L400.37 178.325ZM398.839 175.685C398.839 175.194 399.014 174.813 399.335 174.63C399.656 174.447 400.075 174.489 400.503 174.736L400.369 174.967C399.989 174.747 399.676 174.742 399.467 174.862C399.259 174.981 399.106 175.25 399.106 175.685H398.839ZM400.503 174.736C400.932 174.984 401.313 175.402 401.586 175.874C401.86 176.345 402.033 176.882 402.033 177.375H401.766C401.766 176.941 401.612 176.449 401.356 176.008C401.099 175.566 400.749 175.186 400.369 174.967L400.503 174.736Z" fill="#DDE4F1" mask="url(#path-164-inside-29_37_865)"/>
<path d="M400.469 218.487L400.469 218.487C400.862 218.714 401.201 218.728 401.438 218.593C401.675 218.458 401.833 218.16 401.833 217.71C401.833 217.261 401.674 216.759 401.413 216.309C401.153 215.86 400.794 215.471 400.403 215.245L400.403 215.245C400.011 215.018 399.671 215.004 399.434 215.139C399.198 215.274 399.039 215.572 399.039 216.022C399.039 216.471 399.198 216.974 399.459 217.423C399.719 217.872 400.078 218.261 400.469 218.487Z" fill="#004899" stroke="#DDE4F1" stroke-width="0.133333"/>
<mask id="path-167-inside-30_37_865" fill="white">
<path d="M414.754 232.975L407.977 229.061V168.113L411.365 165.947L414.754 172.027V232.975Z"/>
</mask>
<path d="M414.754 232.975L407.977 229.061V168.113L411.365 165.947L414.754 172.027V232.975Z" fill="#2F6FEB"/>
<path d="M407.977 229.061L407.91 229.176L407.844 229.138V229.061H407.977ZM407.977 168.113H407.844V168.04L407.905 168.001L407.977 168.113ZM411.365 165.947L411.294 165.835L411.413 165.759L411.482 165.882L411.365 165.947ZM414.754 172.027L414.871 171.962L414.887 171.992V172.027H414.754ZM414.687 233.09L407.91 229.176L408.044 228.945L414.821 232.859L414.687 233.09ZM407.844 229.061V168.113H408.11V229.061H407.844ZM407.905 168.001L411.294 165.835L411.437 166.06L408.049 168.226L407.905 168.001ZM411.482 165.882L414.871 171.962L414.638 172.092L411.249 166.012L411.482 165.882ZM414.887 172.027V232.975H414.621V172.027H414.887Z" fill="#DDE4F1" mask="url(#path-167-inside-30_37_865)"/>
<path d="M414.821 172.066V232.859L416.671 231.798V171.004L414.821 172.066Z" fill="#2F6FEB" stroke="#DDE4F1" stroke-width="0.133333"/>
<path d="M411.456 165.972L414.779 171.935L416.647 170.864L413.323 164.902L411.456 165.972Z" fill="#5797FF" stroke="#DDE4F1" stroke-width="0.133333"/>
<mask id="path-171-inside-31_37_865" fill="white">
<path d="M412.829 183.693C412.829 184.621 412.174 184.995 411.366 184.528C410.557 184.062 409.901 182.931 409.901 182.004C409.901 181.077 410.557 180.703 411.366 181.17C412.174 181.636 412.829 182.767 412.829 183.693Z"/>
</mask>
<path d="M412.829 183.693C412.829 184.621 412.174 184.995 411.366 184.528C410.557 184.062 409.901 182.931 409.901 182.004C409.901 181.077 410.557 180.703 411.366 181.17C412.174 181.636 412.829 182.767 412.829 183.693Z" fill="#004899"/>
<path d="M411.366 184.528L411.432 184.412L411.432 184.412L411.366 184.528ZM411.366 181.17L411.299 181.286L411.299 181.285L411.366 181.17ZM412.962 183.693C412.962 184.185 412.787 184.566 412.466 184.749C412.146 184.932 411.727 184.891 411.299 184.643L411.432 184.412C411.812 184.632 412.125 184.637 412.334 184.518C412.543 184.399 412.696 184.129 412.696 183.693H412.962ZM411.299 184.643C410.87 184.396 410.489 183.978 410.215 183.506C409.941 183.034 409.768 182.497 409.768 182.004H410.034C410.034 182.438 410.189 182.93 410.446 183.372C410.702 183.814 411.053 184.194 411.432 184.412L411.299 184.643ZM409.768 182.004C409.768 181.512 409.943 181.131 410.264 180.948C410.585 180.766 411.004 180.807 411.432 181.055L411.299 181.285C410.919 181.066 410.606 181.061 410.396 181.18C410.187 181.299 410.034 181.569 410.034 182.004H409.768ZM411.432 181.054C411.861 181.302 412.242 181.72 412.516 182.192C412.789 182.664 412.962 183.201 412.962 183.693H412.696C412.696 183.259 412.541 182.768 412.285 182.326C412.029 181.884 411.678 181.504 411.299 181.286L411.432 181.054Z" fill="#DDE4F1" mask="url(#path-171-inside-31_37_865)"/>
<path d="M410.388 223.74C410.649 224.189 411.007 224.579 411.399 224.806C411.791 225.032 412.13 225.046 412.367 224.911C412.604 224.776 412.762 224.478 412.762 224.029C412.762 223.579 412.603 223.076 412.343 222.627C412.082 222.177 411.724 221.787 411.332 221.561L411.366 221.503L411.332 221.561C410.94 221.335 410.6 221.321 410.363 221.456C410.126 221.591 409.968 221.888 409.968 222.338C409.968 222.787 410.127 223.29 410.388 223.74Z" fill="#004899" stroke="#DDE4F1" stroke-width="0.133333"/>
<mask id="path-174-inside-32_37_865" fill="white">
<path d="M425.684 239.292L418.907 235.38V174.431L422.296 172.265L425.684 178.344V239.292Z"/>
</mask>
<path d="M425.684 239.292L418.907 235.38V174.431L422.296 172.265L425.684 178.344V239.292Z" fill="#2F6FEB"/>
<path d="M418.907 235.38L418.84 235.495L418.774 235.457V235.38H418.907ZM418.907 174.431H418.774V174.358L418.835 174.319L418.907 174.431ZM422.296 172.265L422.224 172.153L422.343 172.076L422.412 172.2L422.296 172.265ZM425.684 178.344L425.801 178.279L425.817 178.309V178.344H425.684ZM425.617 239.408L418.84 235.495L418.974 235.264L425.751 239.177L425.617 239.408ZM418.774 235.38V174.431H419.04V235.38H418.774ZM418.835 174.319L422.224 172.153L422.367 172.377L418.979 174.543L418.835 174.319ZM422.412 172.2L425.801 178.279L425.568 178.409L422.179 172.33L422.412 172.2ZM425.817 178.344V239.292H425.551V178.344H425.817Z" fill="#DDE4F1" mask="url(#path-174-inside-32_37_865)"/>
<path d="M425.75 178.382V239.177L427.6 238.117V177.322L425.75 178.382Z" fill="#2F6FEB" stroke="#DDE4F1" stroke-width="0.133333"/>
<path d="M422.385 172.291L425.709 178.253L427.576 177.182L424.253 171.22L422.385 172.291Z" fill="#5797FF" stroke="#DDE4F1" stroke-width="0.133333"/>
<path d="M422.328 190.788L422.329 190.788C422.72 191.015 423.059 191.029 423.297 190.893C423.533 190.758 423.692 190.461 423.692 190.011C423.692 189.562 423.532 189.059 423.272 188.61C423.011 188.161 422.653 187.771 422.262 187.546L422.262 187.546C421.87 187.319 421.53 187.305 421.293 187.44C421.057 187.575 420.898 187.872 420.898 188.323C420.898 188.771 421.057 189.274 421.318 189.723C421.578 190.172 421.937 190.562 422.328 190.788Z" fill="#004899" stroke="#DDE4F1" stroke-width="0.133333"/>
<path d="M422.328 231.122L422.329 231.122C422.72 231.349 423.059 231.363 423.297 231.227C423.533 231.092 423.692 230.795 423.692 230.345C423.692 229.896 423.532 229.393 423.272 228.944C423.011 228.495 422.653 228.105 422.262 227.88L422.262 227.879C421.87 227.653 421.53 227.639 421.293 227.774C421.057 227.909 420.898 228.206 420.898 228.655C420.898 229.105 421.057 229.608 421.318 230.057C421.578 230.507 421.937 230.896 422.328 231.122Z" fill="#004899" stroke="#DDE4F1" stroke-width="0.133333"/>
<path d="M429.902 180.786V241.658L436.547 245.495V184.679L433.201 178.677L429.902 180.786Z" fill="#2F6FEB" stroke="#DDE4F1" stroke-width="0.133333"/>
<path d="M436.68 184.7V245.495L438.53 244.434V183.641L436.68 184.7Z" fill="#2F6FEB" stroke="#DDE4F1" stroke-width="0.133333"/>
<mask id="path-182-inside-33_37_865" fill="white">
<path d="M436.613 184.662L438.596 183.526L435.207 177.446L433.224 178.583L436.613 184.662Z"/>
</mask>
<path d="M436.613 184.662L438.596 183.526L435.207 177.446L433.224 178.583L436.613 184.662Z" fill="#5797FF"/>
<path d="M438.596 183.526L438.713 183.461L438.777 183.576L438.663 183.641L438.596 183.526ZM435.207 177.446L435.14 177.33L435.257 177.263L435.323 177.381L435.207 177.446ZM433.224 178.583L433.108 178.648L433.044 178.533L433.158 178.467L433.224 178.583ZM436.547 184.546L438.53 183.41L438.663 183.641L436.679 184.777L436.547 184.546ZM438.48 183.591L435.09 177.511L435.323 177.381L438.713 183.461L438.48 183.591ZM435.273 177.562L433.291 178.699L433.158 178.467L435.14 177.33L435.273 177.562ZM433.341 178.518L436.729 184.597L436.497 184.727L433.108 178.648L433.341 178.518Z" fill="#DDE4F1" mask="url(#path-182-inside-33_37_865)"/>
<path d="M433.258 197.105L433.258 197.105C433.65 197.331 433.989 197.345 434.226 197.21C434.463 197.075 434.622 196.778 434.622 196.328C434.622 195.879 434.462 195.376 434.202 194.927C433.941 194.477 433.583 194.088 433.191 193.861C432.799 193.635 432.46 193.621 432.223 193.756C431.986 193.891 431.828 194.189 431.828 194.638C431.828 195.087 431.987 195.59 432.248 196.04C432.508 196.489 432.866 196.879 433.258 197.105Z" fill="#004899" stroke="#DDE4F1" stroke-width="0.133333"/>
<path d="M433.192 234.197L433.191 234.197C432.799 233.971 432.46 233.957 432.223 234.091C431.986 234.226 431.828 234.524 431.828 234.973C431.828 235.423 431.987 235.925 432.248 236.375C432.508 236.824 432.866 237.213 433.258 237.44C433.65 237.666 433.989 237.68 434.226 237.545C434.463 237.41 434.622 237.113 434.622 236.664C434.622 236.215 434.462 235.712 434.202 235.262C433.941 234.813 433.583 234.423 433.192 234.197Z" fill="#004899" stroke="#DDE4F1" stroke-width="0.133333"/>
<mask id="path-186-inside-34_37_865" fill="white">
<path d="M447.541 251.927L440.764 248.015V187.066L444.153 184.9L447.541 190.979V251.927Z"/>
</mask>
<path d="M447.541 251.927L440.764 248.015V187.066L444.153 184.9L447.541 190.979V251.927Z" fill="#2F6FEB"/>
<path d="M440.764 248.015L440.697 248.131L440.631 248.092V248.015H440.764ZM440.764 187.066H440.631V186.993L440.692 186.954L440.764 187.066ZM444.153 184.9L444.081 184.788L444.2 184.712L444.269 184.835L444.153 184.9ZM447.541 190.979L447.658 190.914L447.675 190.944V190.979H447.541ZM447.475 252.042L440.697 248.131L440.831 247.9L447.608 251.811L447.475 252.042ZM440.631 248.015V187.066H440.897V248.015H440.631ZM440.692 186.954L444.081 184.788L444.225 185.013L440.836 187.179L440.692 186.954ZM444.269 184.835L447.658 190.914L447.425 191.044L444.036 184.965L444.269 184.835ZM447.675 190.979V251.927H447.408V190.979H447.675Z" fill="#DDE4F1" mask="url(#path-186-inside-34_37_865)"/>
<path d="M444.244 184.925L447.567 190.887L449.435 189.817L446.111 183.854L444.244 184.925Z" fill="#5797FF" stroke="#DDE4F1" stroke-width="0.133333"/>
<path d="M444.12 200.181L444.12 200.181C444.512 200.407 444.871 200.796 445.132 201.245C445.392 201.694 445.551 202.197 445.551 202.646C445.551 203.095 445.393 203.393 445.156 203.528C444.919 203.663 444.58 203.649 444.187 203.422L444.12 200.181ZM444.12 200.181C443.729 199.954 443.389 199.94 443.153 200.075C442.916 200.21 442.758 200.508 442.758 200.957C442.758 201.406 442.917 201.909 443.177 202.358M444.12 200.181L443.177 202.358M443.177 202.358C443.438 202.807 443.796 203.196 444.187 203.422L443.177 202.358Z" fill="#004899" stroke="#DDE4F1" stroke-width="0.133333"/>
<path d="M444.187 243.756L444.187 243.756C444.58 243.983 444.919 243.997 445.156 243.862C445.393 243.727 445.551 243.429 445.551 242.98C445.551 242.53 445.392 242.027 445.132 241.578C444.871 241.129 444.512 240.74 444.12 240.514L444.12 240.514C443.729 240.288 443.389 240.273 443.153 240.408C442.916 240.543 442.758 240.84 442.758 241.29C442.758 241.739 442.917 242.242 443.177 242.691C443.438 243.141 443.796 243.53 444.187 243.756ZM442.691 241.29C442.691 240.362 443.346 239.989 444.154 240.456C444.963 240.922 445.618 242.052 445.618 242.98C445.618 243.907 444.963 244.281 444.154 243.813C443.346 243.347 442.691 242.218 442.691 241.29Z" fill="#004899" stroke="#DDE4F1" stroke-width="0.133333"/>
<defs>
<linearGradient id="paint0_linear_37_865" x1="204.849" y1="50.6193" x2="204.849" y2="156.294" gradientUnits="userSpaceOnUse">
<stop stop-color="#0850A1"/>
<stop offset="1" stop-color="#074CA1"/>
</linearGradient>
</defs>
</svg>
