<svg width="25" height="25" viewBox="0 0 25 25" fill="none" xmlns="http://www.w3.org/2000/svg">
<g id="iconLogo">
<path id="Vector" d="M21.5498 9.72108L21.5511 9.72209C21.8346 9.94215 22 10.2803 22 10.6383V21.8779C22 21.9094 21.9875 21.9401 21.9644 21.9633C21.9411 21.9865 21.9091 22 21.875 22H3.125C3.09095 22 3.05886 21.9865 3.03563 21.9633C3.0125 21.9401 3 21.9094 3 21.8779L3 10.6383L3 10.6368C2.99992 10.4605 3.04016 10.2864 3.11778 10.1277C3.19541 9.96909 3.30842 9.83 3.44839 9.72125C3.4484 9.72125 3.4484 9.72124 3.4484 9.72124L11.7828 3.24598L11.7832 3.24563C11.9878 3.0866 12.24 3 12.5 3C12.76 3 13.0122 3.0866 13.2168 3.24563L13.217 3.24581L21.5498 9.72108Z" fill="#2F6FEB" stroke="#2F6FEB" stroke-width="6" stroke-linecap="round" stroke-linejoin="round"/>
<g id="Vector_2">
<path d="M18.7032 17.1714C15.2501 19.2523 9.65319 19.2523 6.20319 17.1714H18.7032Z" fill="#2F6FEB"/>
<path d="M18.7032 17.1714C15.2501 19.2523 9.65319 19.2523 6.20319 17.1714" stroke="#F9FAFB" stroke-width="3" stroke-linecap="round" stroke-linejoin="round"/>
</g>
</g>
</svg>
