<svg width="16" height="17" viewBox="0 0 16 17" fill="none" xmlns="http://www.w3.org/2000/svg">
<g id="iconItem">
<path id="Vector" d="M8.81333 2.11087C8.57195 1.92501 8.2742 1.82741 7.96962 1.83433C7.66505 1.84124 7.37203 1.95225 7.13933 2.14887L2.47267 6.14821C2.32453 6.2734 2.20549 6.42941 2.12386 6.60535C2.04222 6.78129 1.99995 6.97292 2 7.16687V13.1669C2 13.5205 2.14048 13.8596 2.39052 14.1097C2.64057 14.3597 2.97971 14.5002 3.33333 14.5002H12.6667C13.0203 14.5002 13.3594 14.3597 13.6095 14.1097C13.8595 13.8596 14 13.5205 14 13.1669V8.26421" stroke="#959FB3" stroke-width="1.33333" stroke-linecap="round" stroke-linejoin="round"/>
<path id="Vector_2" d="M10 14.5V9.16667C10 8.98986 9.92976 8.82029 9.80474 8.69526C9.67971 8.57024 9.51014 8.5 9.33333 8.5H6.66667C6.48986 8.5 6.32029 8.57024 6.19526 8.69526C6.07024 8.82029 6 8.98986 6 9.16667V14.5" stroke="#959FB3" stroke-width="1.33333" stroke-linecap="round" stroke-linejoin="round"/>
<path id="Vector_3" d="M10 4.5H14" stroke="#959FB3" stroke-width="1.33333" stroke-linecap="round" stroke-linejoin="round"/>
<path id="Vector_4" d="M12 2.5V6.5" stroke="#959FB3" stroke-width="1.33333" stroke-linecap="round" stroke-linejoin="round"/>
</g>
</svg>
