<svg width="26" height="27" viewBox="0 0 26 27" fill="none" xmlns="http://www.w3.org/2000/svg">
<path d="M23.8333 9.1665V2.6665H17.3333" stroke="black" stroke-width="2" stroke-linecap="round" stroke-linejoin="round"/>
<path d="M17.3333 9.1665L23.8333 2.6665" stroke="black" stroke-width="2" stroke-linecap="round" stroke-linejoin="round"/>
<path d="M23.8334 18.8299V22.0799C23.8346 22.3817 23.7728 22.6803 23.6519 22.9567C23.531 23.2332 23.3538 23.4813 23.1314 23.6853C22.9091 23.8893 22.6467 24.0445 22.3608 24.1412C22.075 24.2379 21.7722 24.2738 21.4717 24.2466C18.1381 23.8844 14.9359 22.7453 12.1225 20.9208C9.50501 19.2575 7.28581 17.0383 5.62253 14.4208C3.79167 11.5946 2.65229 8.37685 2.2967 5.02828C2.26962 4.7287 2.30523 4.42677 2.40124 4.1417C2.49725 3.85664 2.65156 3.59469 2.85436 3.37253C3.05715 3.15037 3.30398 2.97288 3.57914 2.85134C3.85429 2.7298 4.15173 2.66689 4.45253 2.66661H7.70253C8.22828 2.66143 8.73797 2.84761 9.1366 3.19044C9.53524 3.53326 9.79561 4.00934 9.8692 4.52994C10.0064 5.57001 10.2608 6.59123 10.6275 7.57411C10.7733 7.96186 10.8048 8.38327 10.7184 8.7884C10.632 9.19352 10.4313 9.5654 10.14 9.85994L8.7642 11.2358C10.3064 13.9479 12.552 16.1936 15.2642 17.7358L16.64 16.3599C16.9346 16.0687 17.3064 15.8679 17.7116 15.7815C18.1167 15.6951 18.5381 15.7267 18.9259 15.8724C19.9087 16.2392 20.93 16.4936 21.97 16.6308C22.4963 16.705 22.9769 16.9701 23.3204 17.3756C23.664 17.781 23.8465 18.2986 23.8334 18.8299Z" stroke="black" stroke-width="2" stroke-linecap="round" stroke-linejoin="round"/>
</svg>
