<svg width="16" height="17" viewBox="0 0 16 17" fill="none" xmlns="http://www.w3.org/2000/svg">
<g id="iconMap">
<path id="Vector" d="M9.404 4.20185C9.58907 4.29433 9.79312 4.34247 10 4.34247C10.2069 4.34247 10.4109 4.29433 10.596 4.20185L13.0353 2.98185C13.1371 2.93102 13.2501 2.90705 13.3637 2.91223C13.4773 2.9174 13.5876 2.95154 13.6843 3.0114C13.781 3.07126 13.8607 3.15486 13.916 3.25424C13.9713 3.35361 14.0002 3.46547 14 3.57918V12.0885C13.9999 12.2123 13.9654 12.3336 13.9003 12.4389C13.8352 12.5441 13.7421 12.6292 13.6313 12.6845L10.596 14.2025C10.4109 14.295 10.2069 14.3431 10 14.3431C9.79312 14.3431 9.58907 14.295 9.404 14.2025L6.596 12.7985C6.41094 12.706 6.20689 12.6579 6 12.6579C5.79312 12.6579 5.58907 12.706 5.404 12.7985L2.96467 14.0185C2.8629 14.0694 2.74982 14.0933 2.63617 14.0881C2.52253 14.0829 2.41211 14.0487 2.31541 13.9888C2.21872 13.9288 2.13898 13.8452 2.08377 13.7457C2.02856 13.6462 1.99972 13.5343 2 13.4205V4.91185C2.00007 4.78807 2.03459 4.66676 2.0997 4.5615C2.16482 4.45623 2.25795 4.37118 2.36867 4.31585L5.404 2.79785C5.58907 2.70537 5.79312 2.65723 6 2.65723C6.20689 2.65723 6.41094 2.70537 6.596 2.79785L9.404 4.20185Z" stroke="#959FB3" stroke-width="1.33333" stroke-linecap="round" stroke-linejoin="round"/>
<path id="Vector_2" d="M10 4.34277V14.3428" stroke="#959FB3" stroke-width="1.33333" stroke-linecap="round" stroke-linejoin="round"/>
<path id="Vector_3" d="M6 2.65723V12.6572" stroke="#959FB3" stroke-width="1.33333" stroke-linecap="round" stroke-linejoin="round"/>
</g>
</svg>
