<svg width="14" height="15" viewBox="0 0 14 15" fill="none" xmlns="http://www.w3.org/2000/svg">
<g id="Frame">
<path id="Vector" fill-rule="evenodd" clip-rule="evenodd" d="M3.50002 1.8999C3.68568 1.8999 3.86372 1.97365 3.995 2.10493C4.12627 2.2362 4.20002 2.41425 4.20002 2.5999V3.2999H4.90002C5.08568 3.2999 5.26372 3.37365 5.395 3.50493C5.52627 3.6362 5.60002 3.81425 5.60002 3.9999C5.60002 4.18555 5.52627 4.3636 5.395 4.49488C5.26372 4.62615 5.08568 4.6999 4.90002 4.6999H4.20002V5.3999C4.20002 5.58555 4.12627 5.7636 3.995 5.89488C3.86372 6.02615 3.68568 6.0999 3.50002 6.0999C3.31437 6.0999 3.13633 6.02615 3.00505 5.89488C2.87377 5.7636 2.80002 5.58555 2.80002 5.3999V4.6999H2.10002C1.91437 4.6999 1.73633 4.62615 1.60505 4.49488C1.47377 4.3636 1.40002 4.18555 1.40002 3.9999C1.40002 3.81425 1.47377 3.6362 1.60505 3.50493C1.73633 3.37365 1.91437 3.2999 2.10002 3.2999H2.80002V2.5999C2.80002 2.41425 2.87377 2.2362 3.00505 2.10493C3.13633 1.97365 3.31437 1.8999 3.50002 1.8999ZM3.50002 8.8999C3.68568 8.8999 3.86372 8.97365 3.995 9.10493C4.12627 9.2362 4.20002 9.41425 4.20002 9.5999V10.2999H4.90002C5.08568 10.2999 5.26372 10.3737 5.395 10.5049C5.52627 10.6362 5.60002 10.8142 5.60002 10.9999C5.60002 11.1856 5.52627 11.3636 5.395 11.4949C5.26372 11.6262 5.08568 11.6999 4.90002 11.6999H4.20002V12.3999C4.20002 12.5856 4.12627 12.7636 3.995 12.8949C3.86372 13.0262 3.68568 13.0999 3.50002 13.0999C3.31437 13.0999 3.13633 13.0262 3.00505 12.8949C2.87377 12.7636 2.80002 12.5856 2.80002 12.3999V11.6999H2.10002C1.91437 11.6999 1.73633 11.6262 1.60505 11.4949C1.47377 11.3636 1.40002 11.1856 1.40002 10.9999C1.40002 10.8142 1.47377 10.6362 1.60505 10.5049C1.73633 10.3737 1.91437 10.2999 2.10002 10.2999H2.80002V9.5999C2.80002 9.41425 2.87377 9.2362 3.00505 9.10493C3.13633 8.97365 3.31437 8.8999 3.50002 8.8999ZM8.40002 1.8999C8.55451 1.89985 8.70467 1.95091 8.8271 2.04511C8.94954 2.13931 9.03738 2.27137 9.07692 2.4207L9.90222 5.5399L12.25 6.8937C12.3564 6.95514 12.4448 7.04351 12.5062 7.14992C12.5677 7.25633 12.6 7.37703 12.6 7.4999C12.6 7.62277 12.5677 7.74348 12.5062 7.84989C12.4448 7.9563 12.3564 8.04466 12.25 8.1061L9.90222 9.4606L9.07622 12.5791C9.0366 12.7283 8.94878 12.8602 8.82643 12.9543C8.70407 13.0484 8.55404 13.0994 8.39967 13.0994C8.24531 13.0994 8.09528 13.0484 7.97292 12.9543C7.85056 12.8602 7.76274 12.7283 7.72312 12.5791L6.89782 9.4599L4.55002 8.1061C4.44362 8.04466 4.35526 7.9563 4.29383 7.84989C4.2324 7.74348 4.20006 7.62277 4.20006 7.4999C4.20006 7.37703 4.2324 7.25633 4.29383 7.14992C4.35526 7.04351 4.44362 6.95514 4.55002 6.8937L6.89782 5.5392L7.72382 2.4207C7.76334 2.27148 7.85107 2.13951 7.97337 2.04532C8.09566 1.95113 8.24566 1.90001 8.40002 1.8999Z" fill="#2F6FEB"/>
</g>
</svg>
