<svg width="32" height="32" viewBox="0 0 32 32" fill="none" xmlns="http://www.w3.org/2000/svg">
<g id="Icon">
<path id="Vector" d="M16 28L29.3333 18.6667H24.0133L24 4H7.99999V18.6667H2.66666L16 28Z" fill="white" stroke="white" stroke-width="2" stroke-linecap="round" stroke-linejoin="round"/>
<g id="Vector_2" filter="url(#filter0_d_37_1096)">
<path d="M12 18.6665L20 10.6665" stroke="#2F6FEB" stroke-width="2" stroke-linecap="round" stroke-linejoin="round"/>
</g>
<g id="Vector_3" filter="url(#filter1_d_37_1096)">
<path d="M12.6667 11.9998C13.0349 11.9998 13.3333 11.7014 13.3333 11.3332C13.3333 10.965 13.0349 10.6665 12.6667 10.6665C12.2985 10.6665 12 10.965 12 11.3332C12 11.7014 12.2985 11.9998 12.6667 11.9998Z" fill="#2F6FEB"/>
<path d="M12.6667 11.9998C13.0349 11.9998 13.3333 11.7014 13.3333 11.3332C13.3333 10.965 13.0349 10.6665 12.6667 10.6665C12.2985 10.6665 12 10.965 12 11.3332C12 11.7014 12.2985 11.9998 12.6667 11.9998Z" stroke="#2F6FEB" stroke-width="2" stroke-linecap="round" stroke-linejoin="round"/>
</g>
<path id="Vector_4" d="M19.3333 18.6668C19.7015 18.6668 20 18.3684 20 18.0002C20 17.632 19.7015 17.3335 19.3333 17.3335C18.9651 17.3335 18.6667 17.632 18.6667 18.0002C18.6667 18.3684 18.9651 18.6668 19.3333 18.6668Z" fill="#2F6FEB" stroke="#2F6FEB" stroke-width="2" stroke-linecap="round" stroke-linejoin="round"/>
</g>
<defs>
<filter id="filter0_d_37_1096" x="9" y="7.6665" width="18" height="18" filterUnits="userSpaceOnUse" color-interpolation-filters="sRGB">
<feFlood flood-opacity="0" result="BackgroundImageFix"/>
<feColorMatrix in="SourceAlpha" type="matrix" values="0 0 0 0 0 0 0 0 0 0 0 0 0 0 0 0 0 0 127 0" result="hardAlpha"/>
<feOffset dx="2" dy="2"/>
<feGaussianBlur stdDeviation="2"/>
<feComposite in2="hardAlpha" operator="out"/>
<feColorMatrix type="matrix" values="0 0 0 0 0.439216 0 0 0 0 0.396078 0 0 0 0 0.941176 0 0 0 0.1 0"/>
<feBlend mode="normal" in2="BackgroundImageFix" result="effect1_dropShadow_37_1096"/>
<feBlend mode="normal" in="SourceGraphic" in2="effect1_dropShadow_37_1096" result="shape"/>
</filter>
<filter id="filter1_d_37_1096" x="9" y="7.6665" width="11.3333" height="11.3335" filterUnits="userSpaceOnUse" color-interpolation-filters="sRGB">
<feFlood flood-opacity="0" result="BackgroundImageFix"/>
<feColorMatrix in="SourceAlpha" type="matrix" values="0 0 0 0 0 0 0 0 0 0 0 0 0 0 0 0 0 0 127 0" result="hardAlpha"/>
<feOffset dx="2" dy="2"/>
<feGaussianBlur stdDeviation="2"/>
<feComposite in2="hardAlpha" operator="out"/>
<feColorMatrix type="matrix" values="0 0 0 0 0.439216 0 0 0 0 0.396078 0 0 0 0 0.941176 0 0 0 0.1 0"/>
<feBlend mode="normal" in2="BackgroundImageFix" result="effect1_dropShadow_37_1096"/>
<feBlend mode="normal" in="SourceGraphic" in2="effect1_dropShadow_37_1096" result="shape"/>
</filter>
</defs>
</svg>
