<svg width="32" height="32" viewBox="0 0 32 32" fill="none" xmlns="http://www.w3.org/2000/svg">
<g id="Icon" clip-path="url(#clip0_37_1084)">
<g id="Vector" filter="url(#filter0_d_37_1084)">
<path d="M6.66664 28V6.66667C6.66664 5.95942 6.94759 5.28115 7.44769 4.78105C7.94779 4.28095 8.62606 4 9.33331 4H22.6666C23.3739 4 24.0522 4.28095 24.5523 4.78105C25.0524 5.28115 25.3333 5.95942 25.3333 6.66667V28L21.3333 25.3333L18.6666 28L16 25.3333L13.3333 28L10.6666 25.3333L6.66664 28Z" fill="white"/>
<path d="M6.66664 28V6.66667C6.66664 5.95942 6.94759 5.28115 7.44769 4.78105C7.94779 4.28095 8.62606 4 9.33331 4H22.6666C23.3739 4 24.0522 4.28095 24.5523 4.78105C25.0524 5.28115 25.3333 5.95942 25.3333 6.66667V28L21.3333 25.3333L18.6666 28L16 25.3333L13.3333 28L10.6666 25.3333L6.66664 28Z" stroke="white" stroke-width="2" stroke-linecap="round" stroke-linejoin="round"/>
</g>
<g id="Vector_2" filter="url(#filter1_d_37_1084)">
<path d="M18.6667 10.6665H15.3334C14.8029 10.6665 14.2942 10.8772 13.9192 11.2523C13.5441 11.6274 13.3334 12.1361 13.3334 12.6665C13.3334 13.1969 13.5441 13.7056 13.9192 14.0807C14.2942 14.4558 14.8029 14.6665 15.3334 14.6665H16.6667C17.1971 14.6665 17.7058 14.8772 18.0809 15.2523C18.456 15.6274 18.6667 16.1361 18.6667 16.6665C18.6667 17.1969 18.456 17.7056 18.0809 18.0807C17.7058 18.4558 17.1971 18.6665 16.6667 18.6665H13.3334M16 18.6665V20.6665M16 8.6665V10.6665" stroke="#2F6FEB" stroke-width="2" stroke-linecap="round" stroke-linejoin="round" shape-rendering="crispEdges"/>
</g>
</g>
<defs>
<filter id="filter0_d_37_1084" x="3.66664" y="1" width="28.6667" height="34" filterUnits="userSpaceOnUse" color-interpolation-filters="sRGB">
<feFlood flood-opacity="0" result="BackgroundImageFix"/>
<feColorMatrix in="SourceAlpha" type="matrix" values="0 0 0 0 0 0 0 0 0 0 0 0 0 0 0 0 0 0 127 0" result="hardAlpha"/>
<feOffset dx="2" dy="2"/>
<feGaussianBlur stdDeviation="2"/>
<feComposite in2="hardAlpha" operator="out"/>
<feColorMatrix type="matrix" values="0 0 0 0 0.439216 0 0 0 0 0.396078 0 0 0 0 0.941176 0 0 0 0.1 0"/>
<feBlend mode="normal" in2="BackgroundImageFix" result="effect1_dropShadow_37_1084"/>
<feBlend mode="normal" in="SourceGraphic" in2="effect1_dropShadow_37_1084" result="shape"/>
</filter>
<filter id="filter1_d_37_1084" x="10.3334" y="5.6665" width="15.3333" height="22" filterUnits="userSpaceOnUse" color-interpolation-filters="sRGB">
<feFlood flood-opacity="0" result="BackgroundImageFix"/>
<feColorMatrix in="SourceAlpha" type="matrix" values="0 0 0 0 0 0 0 0 0 0 0 0 0 0 0 0 0 0 127 0" result="hardAlpha"/>
<feOffset dx="2" dy="2"/>
<feGaussianBlur stdDeviation="2"/>
<feComposite in2="hardAlpha" operator="out"/>
<feColorMatrix type="matrix" values="0 0 0 0 0.439216 0 0 0 0 0.396078 0 0 0 0 0.941176 0 0 0 0.1 0"/>
<feBlend mode="normal" in2="BackgroundImageFix" result="effect1_dropShadow_37_1084"/>
<feBlend mode="normal" in="SourceGraphic" in2="effect1_dropShadow_37_1084" result="shape"/>
</filter>
<clipPath id="clip0_37_1084">
<rect width="32" height="32" fill="white"/>
</clipPath>
</defs>
</svg>
