<svg width="16" height="16" viewBox="0 0 16 16" fill="none" xmlns="http://www.w3.org/2000/svg">
<g id="vuesax/bold/house-2">
<g id="house-2">
<path id="Vector" d="M6.66666 10.3335C6.39332 10.3335 6.16666 10.5602 6.16666 10.8335V11.8335C6.16666 12.1068 6.39332 12.3335 6.66666 12.3335C6.93999 12.3335 7.16666 12.1068 7.16666 11.8335V10.8335C7.16666 10.5602 6.93999 10.3335 6.66666 10.3335Z" fill="white"/>
<path id="Vector_2" d="M14.6667 14.1668H14V6.65348C14 6.24014 13.8133 5.85348 13.4867 5.60014L8.82001 1.97348C8.34001 1.59348 7.66001 1.59348 7.18001 1.97348L2.51334 5.60014C2.18668 5.85348 2.00001 6.24014 2.00001 6.64681L1.96668 14.1668H1.33334C1.06001 14.1668 0.833344 14.3868 0.833344 14.6668C0.833344 14.9401 1.06001 15.1668 1.33334 15.1668H14.6667C14.94 15.1668 15.1667 14.9401 15.1667 14.6668C15.1667 14.3868 14.94 14.1668 14.6667 14.1668ZM7.00001 4.50014H9.00001C9.27334 4.50014 9.50001 4.72681 9.50001 5.00014C9.50001 5.27348 9.27334 5.50014 9.00001 5.50014H7.00001C6.72668 5.50014 6.50001 5.27348 6.50001 5.00014C6.50001 4.72681 6.72668 4.50014 7.00001 4.50014ZM11.3333 14.1668H4.66668V8.33348C4.66668 7.78014 5.11334 7.33348 5.66668 7.33348H10.3333C10.8867 7.33348 11.3333 7.78014 11.3333 8.33348V14.1668Z" fill="white"/>
</g>
</g>
</svg>
