<svg width="32" height="32" viewBox="0 0 32 32" fill="none" xmlns="http://www.w3.org/2000/svg">
<g id="Icon">
<g clip-path="url(#clip0_37_1107)">
<g id="Vector" filter="url(#filter0_d_37_1107)">
<path d="M5.33336 10.6668V8.00016C5.33336 7.29292 5.61431 6.61464 6.11441 6.11454C6.6145 5.61445 7.29278 5.3335 8.00003 5.3335H10.6667" stroke="white" stroke-width="2" stroke-linecap="round" stroke-linejoin="round" shape-rendering="crispEdges"/>
</g>
<g id="Vector_2" filter="url(#filter1_d_37_1107)">
<path d="M5.33336 21.3335V24.0002C5.33336 24.7074 5.61431 25.3857 6.11441 25.8858C6.6145 26.3859 7.29278 26.6668 8.00003 26.6668H10.6667" stroke="white" stroke-width="2" stroke-linecap="round" stroke-linejoin="round" shape-rendering="crispEdges"/>
</g>
<path id="Vector_3" d="M21.3334 5.3335H24C24.7073 5.3335 25.3856 5.61445 25.8857 6.11454C26.3858 6.61464 26.6667 7.29292 26.6667 8.00016V10.6668" stroke="white" stroke-width="2" stroke-linecap="round" stroke-linejoin="round"/>
<path id="Vector_4" d="M21.3334 26.6668H24C24.7073 26.6668 25.3856 26.3859 25.8857 25.8858C26.3858 25.3857 26.6667 24.7074 26.6667 24.0002V21.3335" stroke="white" stroke-width="2" stroke-linecap="round" stroke-linejoin="round"/>
<path id="Vector_5" d="M16 24L11.3333 17.3333C10.8841 16.5213 10.6544 15.6062 10.6671 14.6784C10.6798 13.7505 10.9344 12.842 11.4057 12.0426C11.877 11.2433 12.5486 10.5807 13.3544 10.1204C14.1601 9.66008 15.072 9.41797 16 9.41797C16.9279 9.41797 17.8398 9.66008 18.6455 10.1204C19.4513 10.5807 20.123 11.2433 20.5943 12.0426C21.0655 12.842 21.3201 13.7505 21.3328 14.6784C21.3455 15.6062 21.1159 16.5213 20.6666 17.3333L16 24Z" fill="white" stroke="white" stroke-width="2" stroke-linecap="round" stroke-linejoin="round"/>
<path id="Vector_6" d="M16 14.6665V14.6798" stroke="#2F6FEB" stroke-width="6" stroke-linecap="round" stroke-linejoin="round"/>
</g>
<rect x="0.5" y="0.5" width="31" height="31" stroke="#DDE4F1"/>
</g>
<defs>
<filter id="filter0_d_37_1107" x="2.33336" y="2.3335" width="15.3333" height="15.3335" filterUnits="userSpaceOnUse" color-interpolation-filters="sRGB">
<feFlood flood-opacity="0" result="BackgroundImageFix"/>
<feColorMatrix in="SourceAlpha" type="matrix" values="0 0 0 0 0 0 0 0 0 0 0 0 0 0 0 0 0 0 127 0" result="hardAlpha"/>
<feOffset dx="2" dy="2"/>
<feGaussianBlur stdDeviation="2"/>
<feComposite in2="hardAlpha" operator="out"/>
<feColorMatrix type="matrix" values="0 0 0 0 0.439216 0 0 0 0 0.396078 0 0 0 0 0.941176 0 0 0 0.1 0"/>
<feBlend mode="normal" in2="BackgroundImageFix" result="effect1_dropShadow_37_1107"/>
<feBlend mode="normal" in="SourceGraphic" in2="effect1_dropShadow_37_1107" result="shape"/>
</filter>
<filter id="filter1_d_37_1107" x="2.33336" y="18.3335" width="15.3333" height="15.3335" filterUnits="userSpaceOnUse" color-interpolation-filters="sRGB">
<feFlood flood-opacity="0" result="BackgroundImageFix"/>
<feColorMatrix in="SourceAlpha" type="matrix" values="0 0 0 0 0 0 0 0 0 0 0 0 0 0 0 0 0 0 127 0" result="hardAlpha"/>
<feOffset dx="2" dy="2"/>
<feGaussianBlur stdDeviation="2"/>
<feComposite in2="hardAlpha" operator="out"/>
<feColorMatrix type="matrix" values="0 0 0 0 0.439216 0 0 0 0 0.396078 0 0 0 0 0.941176 0 0 0 0.1 0"/>
<feBlend mode="normal" in2="BackgroundImageFix" result="effect1_dropShadow_37_1107"/>
<feBlend mode="normal" in="SourceGraphic" in2="effect1_dropShadow_37_1107" result="shape"/>
</filter>
<clipPath id="clip0_37_1107">
<rect width="32" height="32" fill="white"/>
</clipPath>
</defs>
</svg>
