<svg width="16" height="16" viewBox="0 0 16 16" fill="none" xmlns="http://www.w3.org/2000/svg">
<g id="Frame">
<path id="Vector" d="M12.36 2.78009L8.69334 1.40676C8.31333 1.26676 7.69334 1.26676 7.31333 1.40676L3.64667 2.78009C2.94 3.04676 2.36667 3.87343 2.36667 4.62676V10.0268C2.36667 10.5668 2.72 11.2801 3.15334 11.6001L6.82 14.3401C7.46667 14.8268 8.52667 14.8268 9.17334 14.3401L12.84 11.6001C13.2733 11.2734 13.6267 10.5668 13.6267 10.0268V4.62676C13.6333 3.87343 13.06 3.04676 12.36 2.78009ZM8.5 8.58009V10.3334C8.5 10.6068 8.27333 10.8334 8 10.8334C7.72667 10.8334 7.5 10.6068 7.5 10.3334V8.58009C6.82667 8.36676 6.33333 7.74009 6.33333 7.00009C6.33333 6.08009 7.08 5.33343 8 5.33343C8.92 5.33343 9.66667 6.08009 9.66667 7.00009C9.66667 7.74676 9.17333 8.36676 8.5 8.58009Z" fill="white"/>
</g>
</svg>
