<svg width="16" height="16" viewBox="0 0 16 16" fill="none" xmlns="http://www.w3.org/2000/svg">
<g id="Icon">
<path id="Vector" d="M7.5 5.38672V7.29339L6.82667 7.06005C6.48667 6.94005 6.28 6.82672 6.28 6.24672C6.28 5.77339 6.63333 5.38672 7.06667 5.38672H7.5Z" fill="white"/>
<path id="Vector_2" d="M9.72 9.75321C9.72 10.2265 9.36667 10.6132 8.93333 10.6132H8.5V8.70654L9.17333 8.93988C9.51333 9.05988 9.72 9.17321 9.72 9.75321Z" fill="white"/>
<path id="Vector_3" d="M10.7933 1.3335H5.20668C2.78001 1.3335 1.33334 2.78016 1.33334 5.20683V10.7935C1.33334 13.2202 2.78001 14.6668 5.20668 14.6668H10.7933C13.22 14.6668 14.6667 13.2202 14.6667 10.7935V5.20683C14.6667 2.78016 13.22 1.3335 10.7933 1.3335ZM9.50668 8.00016C10.0267 8.18016 10.72 8.56016 10.72 9.7535C10.72 10.7802 9.92001 11.6135 8.93334 11.6135H8.50001V12.0002C8.50001 12.2735 8.27334 12.5002 8.00001 12.5002C7.72668 12.5002 7.50001 12.2735 7.50001 12.0002V11.6135H7.26001C6.16668 11.6135 5.28001 10.6868 5.28001 9.5535C5.28001 9.28016 5.50001 9.0535 5.78001 9.0535C6.05334 9.0535 6.28001 9.28016 6.28001 9.5535C6.28001 10.1402 6.72001 10.6135 7.26001 10.6135H7.50001V8.3535L6.49334 8.00016C5.97334 7.82016 5.28001 7.44016 5.28001 6.24683C5.28001 5.22016 6.08001 4.38683 7.06668 4.38683H7.50001V4.00016C7.50001 3.72683 7.72668 3.50016 8.00001 3.50016C8.27334 3.50016 8.50001 3.72683 8.50001 4.00016V4.38683H8.74001C9.83334 4.38683 10.72 5.3135 10.72 6.44683C10.72 6.72016 10.5 6.94683 10.22 6.94683C9.94668 6.94683 9.72001 6.72016 9.72001 6.44683C9.72001 5.86016 9.28001 5.38683 8.74001 5.38683H8.50001V7.64683L9.50668 8.00016Z" fill="white"/>
</g>
</svg>
