<svg xmlns="http://www.w3.org/2000/svg" version="1.1" width="512px" height="512px" style="shape-rendering:geometricPrecision; text-rendering:geometricPrecision; image-rendering:optimizeQuality; fill-rule:evenodd; clip-rule:evenodd" xmlns:xlink="http://www.w3.org/1999/xlink">
<g><path style="opacity:0.946" fill="#000000" d="M 251.5,-0.5 C 254.167,-0.5 256.833,-0.5 259.5,-0.5C 338.606,46.2257 417.939,92.7257 497.5,139C 502.369,141.929 507.035,145.096 511.5,148.5C 511.5,268.167 511.5,387.833 511.5,507.5C 509.833,508.5 508.5,509.833 507.5,511.5C 490.5,511.5 473.5,511.5 456.5,511.5C 454.525,510.354 453.025,508.687 452,506.5C 451.5,428.834 451.333,351.167 451.5,273.5C 320.833,273.5 190.167,273.5 59.5,273.5C 59.6667,351.167 59.5,428.834 59,506.5C 57.975,508.687 56.475,510.354 54.5,511.5C 37.5,511.5 20.5,511.5 3.5,511.5C 2.5,509.833 1.16667,508.5 -0.5,507.5C -0.5,385.167 -0.5,262.833 -0.5,140.5C 0.363622,139.312 1.36362,138.145 2.5,137C 85.666,91.3028 168.666,45.4694 251.5,-0.5 Z M 254.5,18.5 C 333.799,64.7783 413.132,111.112 492.5,157.5C 493.5,269.498 493.833,381.498 493.5,493.5C 485.5,493.5 477.5,493.5 469.5,493.5C 469.667,393.499 469.5,293.499 469,193.5C 468.027,189.594 465.527,187.427 461.5,187C 324.167,186.333 186.833,186.333 49.5,187C 45.4729,187.427 42.9729,189.594 42,193.5C 41.5,293.499 41.3333,393.499 41.5,493.5C 33.5,493.5 25.5,493.5 17.5,493.5C 17.3333,378.833 17.5,264.166 18,149.5C 96.976,105.932 175.809,62.2656 254.5,18.5 Z M 221.5,136.5 C 244.167,136.5 266.833,136.5 289.5,136.5C 289.5,141.833 289.5,147.167 289.5,152.5C 266.833,152.5 244.167,152.5 221.5,152.5C 221.5,147.167 221.5,141.833 221.5,136.5 Z M 59.5,204.5 C 190.167,204.5 320.833,204.5 451.5,204.5C 451.5,209.833 451.5,215.167 451.5,220.5C 320.833,220.5 190.167,220.5 59.5,220.5C 59.5,215.167 59.5,209.833 59.5,204.5 Z M 59.5,238.5 C 190.167,238.5 320.833,238.5 451.5,238.5C 451.5,244.167 451.5,249.833 451.5,255.5C 320.833,255.5 190.167,255.5 59.5,255.5C 59.5,249.833 59.5,244.167 59.5,238.5 Z M 332.5,307.5 C 337.833,307.5 343.167,307.5 348.5,307.5C 348.334,316.173 348.5,324.84 349,333.5C 349.427,337.527 351.594,340.027 355.5,341C 368.167,341.667 380.833,341.667 393.5,341C 398.421,340.335 400.921,337.502 401,332.5C 401.5,324.173 401.666,315.84 401.5,307.5C 406.833,307.5 412.167,307.5 417.5,307.5C 417.5,335.5 417.5,363.5 417.5,391.5C 389.167,391.5 360.833,391.5 332.5,391.5C 332.5,363.5 332.5,335.5 332.5,307.5 Z M 366.5,307.5 C 372.167,307.5 377.833,307.5 383.5,307.5C 383.5,312.833 383.5,318.167 383.5,323.5C 377.833,323.5 372.167,323.5 366.5,323.5C 366.5,318.167 366.5,312.833 366.5,307.5 Z M 230.5,409.5 C 235.833,409.5 241.167,409.5 246.5,409.5C 246.334,418.839 246.5,428.173 247,437.5C 247.774,439.939 249.274,441.773 251.5,443C 265.5,443.667 279.5,443.667 293.5,443C 295.333,441.833 296.833,440.333 298,438.5C 298.5,428.839 298.666,419.172 298.5,409.5C 303.833,409.5 309.167,409.5 314.5,409.5C 314.5,437.5 314.5,465.5 314.5,493.5C 286.5,493.5 258.5,493.5 230.5,493.5C 230.5,465.5 230.5,437.5 230.5,409.5 Z M 264.5,409.5 C 269.833,409.5 275.167,409.5 280.5,409.5C 280.5,414.833 280.5,420.167 280.5,425.5C 275.167,425.5 269.833,425.5 264.5,425.5C 264.5,420.167 264.5,414.833 264.5,409.5 Z M 332.5,409.5 C 337.833,409.5 343.167,409.5 348.5,409.5C 348.105,419.566 348.605,429.566 350,439.5C 351.214,441.049 352.714,442.215 354.5,443C 368.167,443.667 381.833,443.667 395.5,443C 397.286,442.215 398.786,441.049 400,439.5C 401.395,429.566 401.895,419.566 401.5,409.5C 406.833,409.5 412.167,409.5 417.5,409.5C 417.5,437.5 417.5,465.5 417.5,493.5C 389.167,493.5 360.833,493.5 332.5,493.5C 332.5,465.5 332.5,437.5 332.5,409.5 Z M 366.5,409.5 C 372.167,409.5 377.833,409.5 383.5,409.5C 383.5,414.833 383.5,420.167 383.5,425.5C 377.833,425.5 372.167,425.5 366.5,425.5C 366.5,420.167 366.5,414.833 366.5,409.5 Z"/></g>
<g><path style="opacity:0.945" fill="none" d="M 209.5,118.5 C 240.168,118.333 270.835,118.5 301.5,119C 304.663,120.48 306.496,122.98 307,126.5C 307.924,139.89 307.591,153.223 306,166.5C 304.786,168.049 303.286,169.215 301.5,170C 270.833,170.667 240.167,170.667 209.5,170C 206.117,168.62 204.284,166.12 204,162.5C 203.333,150.5 203.333,138.5 204,126.5C 204.625,122.891 206.458,120.224 209.5,118.5 Z M 221.5,136.5 C 221.5,141.833 221.5,147.167 221.5,152.5C 244.167,152.5 266.833,152.5 289.5,152.5C 289.5,147.167 289.5,141.833 289.5,136.5C 266.833,136.5 244.167,136.5 221.5,136.5 Z"/></g>
<g><path style="opacity:0.955" fill="none" d="M 430.5,511.5 C 359.5,511.5 288.5,511.5 217.5,511.5C 215.525,510.354 214.025,508.687 213,506.5C 212.333,469.833 212.333,433.167 213,396.5C 214.227,394.274 216.061,392.774 218.5,392C 250.498,391.5 282.498,391.333 314.5,391.5C 314.333,359.832 314.5,328.165 315,296.5C 315.69,293.804 317.19,291.637 319.5,290C 356.5,289.333 393.5,289.333 430.5,290C 431.667,291.167 432.833,292.333 434,293.5C 435.657,363.776 435.99,434.109 435,504.5C 434.096,507.233 432.596,509.567 430.5,511.5 Z M 332.5,307.5 C 332.5,335.5 332.5,363.5 332.5,391.5C 360.833,391.5 389.167,391.5 417.5,391.5C 417.5,363.5 417.5,335.5 417.5,307.5C 412.167,307.5 406.833,307.5 401.5,307.5C 401.666,315.84 401.5,324.173 401,332.5C 400.921,337.502 398.421,340.335 393.5,341C 380.833,341.667 368.167,341.667 355.5,341C 351.594,340.027 349.427,337.527 349,333.5C 348.5,324.84 348.334,316.173 348.5,307.5C 343.167,307.5 337.833,307.5 332.5,307.5 Z M 366.5,307.5 C 366.5,312.833 366.5,318.167 366.5,323.5C 372.167,323.5 377.833,323.5 383.5,323.5C 383.5,318.167 383.5,312.833 383.5,307.5C 377.833,307.5 372.167,307.5 366.5,307.5 Z M 230.5,409.5 C 230.5,437.5 230.5,465.5 230.5,493.5C 258.5,493.5 286.5,493.5 314.5,493.5C 314.5,465.5 314.5,437.5 314.5,409.5C 309.167,409.5 303.833,409.5 298.5,409.5C 298.666,419.172 298.5,428.839 298,438.5C 296.833,440.333 295.333,441.833 293.5,443C 279.5,443.667 265.5,443.667 251.5,443C 249.274,441.773 247.774,439.939 247,437.5C 246.5,428.173 246.334,418.839 246.5,409.5C 241.167,409.5 235.833,409.5 230.5,409.5 Z M 264.5,409.5 C 264.5,414.833 264.5,420.167 264.5,425.5C 269.833,425.5 275.167,425.5 280.5,425.5C 280.5,420.167 280.5,414.833 280.5,409.5C 275.167,409.5 269.833,409.5 264.5,409.5 Z M 332.5,409.5 C 332.5,437.5 332.5,465.5 332.5,493.5C 360.833,493.5 389.167,493.5 417.5,493.5C 417.5,465.5 417.5,437.5 417.5,409.5C 412.167,409.5 406.833,409.5 401.5,409.5C 401.895,419.566 401.395,429.566 400,439.5C 398.786,441.049 397.286,442.215 395.5,443C 381.833,443.667 368.167,443.667 354.5,443C 352.714,442.215 351.214,441.049 350,439.5C 348.605,429.566 348.105,419.566 348.5,409.5C 343.167,409.5 337.833,409.5 332.5,409.5 Z M 366.5,409.5 C 366.5,414.833 366.5,420.167 366.5,425.5C 372.167,425.5 377.833,425.5 383.5,425.5C 383.5,420.167 383.5,414.833 383.5,409.5C 377.833,409.5 372.167,409.5 366.5,409.5 Z"/></g>
</svg>
