<svg xmlns="http://www.w3.org/2000/svg" version="1.1" width="512px" height="512px" style="shape-rendering:geometricPrecision; text-rendering:geometricPrecision; image-rendering:optimizeQuality; fill-rule:evenodd; clip-rule:evenodd" xmlns:xlink="http://www.w3.org/1999/xlink">
<g><path style="opacity:0.95" fill="#000000" d="M 3.5,-0.5 C 171.5,-0.5 339.5,-0.5 507.5,-0.5C 508.5,1.16667 509.833,2.5 511.5,3.5C 511.5,23.5 511.5,43.5 511.5,63.5C 509.86,65.955 507.527,67.455 504.5,68C 498.509,68.4995 492.509,68.6662 486.5,68.5C 486.5,210.167 486.5,351.833 486.5,493.5C 493.574,493.161 500.574,493.661 507.5,495C 508.705,496.376 510.038,497.542 511.5,498.5C 511.5,501.5 511.5,504.5 511.5,507.5C 509.833,508.5 508.5,509.833 507.5,511.5C 339.5,511.5 171.5,511.5 3.5,511.5C 2.5,509.833 1.16667,508.5 -0.5,507.5C -0.5,504.5 -0.5,501.5 -0.5,498.5C 1.55577,495.951 4.22244,494.451 7.5,494C 13.1569,493.501 18.8236,493.334 24.5,493.5C 24.5,351.833 24.5,210.167 24.5,68.5C 18.4908,68.6662 12.4908,68.4995 6.5,68C 3.47322,67.455 1.13988,65.955 -0.5,63.5C -0.5,43.5 -0.5,23.5 -0.5,3.5C 1.16667,2.5 2.5,1.16667 3.5,-0.5 Z M 17.5,17.5 C 176.167,17.5 334.833,17.5 493.5,17.5C 493.5,28.5 493.5,39.5 493.5,50.5C 334.833,50.5 176.167,50.5 17.5,50.5C 17.5,39.5 17.5,28.5 17.5,17.5 Z M 42.5,68.5 C 184.5,68.5 326.5,68.5 468.5,68.5C 468.5,210.167 468.5,351.833 468.5,493.5C 463.167,493.5 457.833,493.5 452.5,493.5C 452.995,358.444 452.495,223.444 451,88.5C 449.786,86.9512 448.286,85.7845 446.5,85C 319.167,84.3333 191.833,84.3333 64.5,85C 62.714,85.7845 61.214,86.9512 60,88.5C 58.5051,223.444 58.0051,358.444 58.5,493.5C 53.1667,493.5 47.8333,493.5 42.5,493.5C 42.5,351.833 42.5,210.167 42.5,68.5 Z M 76.5,102.5 C 195.833,102.5 315.167,102.5 434.5,102.5C 434.5,119.167 434.5,135.833 434.5,152.5C 315.167,152.5 195.833,152.5 76.5,152.5C 76.5,135.833 76.5,119.167 76.5,102.5 Z M 76.5,170.5 C 195.833,170.5 315.167,170.5 434.5,170.5C 434.5,187.167 434.5,203.833 434.5,220.5C 315.167,220.5 195.833,220.5 76.5,220.5C 76.5,203.833 76.5,187.167 76.5,170.5 Z M 76.5,238.5 C 195.833,238.5 315.167,238.5 434.5,238.5C 434.5,255.5 434.5,272.5 434.5,289.5C 315.167,289.5 195.833,289.5 76.5,289.5C 76.5,272.5 76.5,255.5 76.5,238.5 Z M 76.5,307.5 C 195.833,307.5 315.167,307.5 434.5,307.5C 434.5,324.167 434.5,340.833 434.5,357.5C 315.167,357.5 195.833,357.5 76.5,357.5C 76.5,340.833 76.5,324.167 76.5,307.5 Z M 76.5,375.5 C 195.833,375.5 315.167,375.5 434.5,375.5C 434.5,392.167 434.5,408.833 434.5,425.5C 315.167,425.5 195.833,425.5 76.5,425.5C 76.5,408.833 76.5,392.167 76.5,375.5 Z M 76.5,443.5 C 195.833,443.5 315.167,443.5 434.5,443.5C 434.5,460.167 434.5,476.833 434.5,493.5C 315.167,493.5 195.833,493.5 76.5,493.5C 76.5,476.833 76.5,460.167 76.5,443.5 Z"/></g>
<g><path style="opacity:0.931" fill="#000000" d="M 226.5,468.5 C 245.836,468.333 265.17,468.5 284.5,469C 290.302,472.709 291.469,477.542 288,483.5C 286.581,484.46 285.081,485.293 283.5,486C 264.833,486.667 246.167,486.667 227.5,486C 218.555,480.625 218.222,474.792 226.5,468.5 Z"/></g>
</svg>
