<svg width="21" height="20" viewBox="0 0 21 20" fill="none" xmlns="http://www.w3.org/2000/svg">
<g id="Group">
<g id="Page-1_42_">
<g id="present_day_export_42_">
<path id="room_x2C_-space_x2C_-dimensions_x2C_-walls_x2C_-interior_x2C_-indoors" d="M0.500488 15.8825V4.11807C0.500488 3.87288 0.652595 3.65339 0.882159 3.5673L10.2937 0.0379773C10.4403 -0.0170213 10.5907 -0.00967644 10.7207 0.0432128L20.1183 3.5673C20.3479 3.65339 20.4999 3.87288 20.4999 4.11807V15.8825C20.4999 16.1488 20.3275 16.3619 20.1015 16.4396L10.7068 19.9626C10.5736 20.0125 10.4268 20.0125 10.2937 19.9626L0.898955 16.4396C0.672907 16.3619 0.500488 16.1487 0.500488 15.8825ZM16.9707 14.1514L19.3235 15.0337V7.46681L11.0884 4.37865V11.9455L12.8531 12.6073V7.27975C12.8531 6.86905 13.2633 6.58476 13.6478 6.72898L16.5889 7.83188C16.8185 7.91797 16.9706 8.13746 16.9706 8.38265V14.1514H16.9707ZM14.0296 8.12855V13.0484L15.7942 13.7102V8.79029L14.0296 8.12855ZM2.76395 15.8825L10.5002 18.7836L18.2365 15.8825L10.5002 12.9814L2.76395 15.8825ZM9.91201 4.37865L1.6769 7.46681V15.0337L9.91201 11.9455V4.37865ZM11.0885 3.12224L19.3236 6.2104V4.52572L11.0885 1.43755V3.12224ZM1.6769 6.2104L9.91201 3.12224V1.43755L1.6769 4.52572V6.2104ZM2.85336 12.059V9.11794C2.85336 8.87276 3.00546 8.65326 3.23503 8.56717L7.94081 6.80253C8.32537 6.65832 8.73555 6.94261 8.73555 7.3533V10.2944C8.73555 10.5396 8.58345 10.7591 8.35388 10.8452L3.6481 12.6098C3.26358 12.754 2.85336 12.4698 2.85336 12.059ZM7.55914 9.88675V8.20207L4.02981 9.52555V11.2102L7.55914 9.88675Z" fill="black"/>
</g>
</g>
</g>
</svg>
