<svg width="21" height="20" viewBox="0 0 21 20" fill="none" xmlns="http://www.w3.org/2000/svg">
<g id="iconHome">
<path id="Vector" d="M13 17.5V10.8333C13 10.6123 12.9122 10.4004 12.7559 10.2441C12.5996 10.0878 12.3877 10 12.1667 10H8.83333C8.61232 10 8.40036 10.0878 8.24408 10.2441C8.0878 10.4004 8 10.6123 8 10.8333V17.5" stroke="black" stroke-width="1.66667" stroke-linecap="round" stroke-linejoin="round"/>
<path id="Vector_2" d="M3 8.33322C2.99994 8.09078 3.05278 7.85124 3.15482 7.63132C3.25687 7.4114 3.40566 7.21639 3.59083 7.05989L9.42417 2.06073C9.72499 1.80648 10.1061 1.66699 10.5 1.66699C10.8939 1.66699 11.275 1.80648 11.5758 2.06073L17.4092 7.05989C17.5943 7.21639 17.7431 7.4114 17.8452 7.63132C17.9472 7.85124 18.0001 8.09078 18 8.33322V15.8332C18 16.2753 17.8244 16.6992 17.5118 17.0117C17.1993 17.3243 16.7754 17.4999 16.3333 17.4999H4.66667C4.22464 17.4999 3.80072 17.3243 3.48816 17.0117C3.17559 16.6992 3 16.2753 3 15.8332V8.33322Z" stroke="black" stroke-width="1.66667" stroke-linecap="round" stroke-linejoin="round"/>
</g>
</svg>
