<svg width="21" height="20" viewBox="0 0 21 20" fill="none" xmlns="http://www.w3.org/2000/svg">
<g id="iconShop">
<path id="Vector" d="M2.1665 5.83317L5.8415 2.15817C5.99655 2.0022 6.18094 1.87845 6.38403 1.79407C6.58712 1.70968 6.80491 1.66633 7.02484 1.6665H13.9748C14.1948 1.66633 14.4126 1.70968 14.6156 1.79407C14.8187 1.87845 15.0031 2.0022 15.1582 2.15817L18.8332 5.83317" stroke="black" stroke-width="1.66667" stroke-linecap="round" stroke-linejoin="round"/>
<path id="Vector_2" d="M3.8335 10V16.6667C3.8335 17.1087 4.00909 17.5326 4.32165 17.8452C4.63421 18.1577 5.05814 18.3333 5.50016 18.3333H15.5002C15.9422 18.3333 16.3661 18.1577 16.6787 17.8452C16.9912 17.5326 17.1668 17.1087 17.1668 16.6667V10" stroke="black" stroke-width="1.66667" stroke-linecap="round" stroke-linejoin="round"/>
<path id="Vector_3" d="M13 18.3335V15.0002C13 14.5581 12.8244 14.1342 12.5118 13.8217C12.1993 13.5091 11.7754 13.3335 11.3333 13.3335H9.66667C9.22464 13.3335 8.80072 13.5091 8.48816 13.8217C8.1756 14.1342 8 14.5581 8 15.0002V18.3335" stroke="black" stroke-width="1.66667" stroke-linecap="round" stroke-linejoin="round"/>
<path id="Vector_4" d="M2.1665 5.8335H18.8332" stroke="black" stroke-width="1.66667" stroke-linecap="round" stroke-linejoin="round"/>
<path id="Vector_5" d="M18.8332 5.8335V8.3335C18.8332 8.77552 18.6576 9.19945 18.345 9.51201C18.0325 9.82457 17.6085 10.0002 17.1665 10.0002C16.6796 9.97336 16.2146 9.78912 15.8415 9.47516C15.7421 9.40331 15.6225 9.36463 15.4998 9.36463C15.3772 9.36463 15.2576 9.40331 15.1582 9.47516C14.7851 9.78912 14.3201 9.97336 13.8332 10.0002C13.3463 9.97336 12.8813 9.78912 12.5082 9.47516C12.4087 9.40331 12.2892 9.36463 12.1665 9.36463C12.0438 9.36463 11.9243 9.40331 11.8248 9.47516C11.4517 9.78912 10.9867 9.97336 10.4998 10.0002C10.0129 9.97336 9.54795 9.78912 9.17484 9.47516C9.0754 9.40331 8.95585 9.36463 8.83317 9.36463C8.71049 9.36463 8.59094 9.40331 8.4915 9.47516C8.1184 9.78912 7.65339 9.97336 7.1665 10.0002C6.67962 9.97336 6.21461 9.78912 5.8415 9.47516C5.74207 9.40331 5.62252 9.36463 5.49984 9.36463C5.37716 9.36463 5.2576 9.40331 5.15817 9.47516C4.78506 9.78912 4.32006 9.97336 3.83317 10.0002C3.39114 10.0002 2.96722 9.82457 2.65466 9.51201C2.3421 9.19945 2.1665 8.77552 2.1665 8.3335V5.8335" stroke="black" stroke-width="1.66667" stroke-linecap="round" stroke-linejoin="round"/>
</g>
</svg>
