<svg width="21" height="20" viewBox="0 0 21 20" fill="none" xmlns="http://www.w3.org/2000/svg">
<g id="iconKey">
<path id="Vector" d="M13.4165 6.25016L15.3332 8.16683C15.4889 8.31952 15.6984 8.40504 15.9165 8.40504C16.1346 8.40504 16.3441 8.31952 16.4998 8.16683L18.2498 6.41683C18.4025 6.26105 18.4881 6.05162 18.4881 5.8335C18.4881 5.61537 18.4025 5.40594 18.2498 5.25016L16.3332 3.3335" stroke="black" stroke-width="1.66667" stroke-linecap="round" stroke-linejoin="round"/>
<path id="Vector_2" d="M18 1.6665L10 9.6665" stroke="black" stroke-width="1.66667" stroke-linecap="round" stroke-linejoin="round"/>
<path id="Vector_3" d="M6.74984 17.5002C9.28114 17.5002 11.3332 15.4481 11.3332 12.9168C11.3332 10.3855 9.28114 8.3335 6.74984 8.3335C4.21853 8.3335 2.1665 10.3855 2.1665 12.9168C2.1665 15.4481 4.21853 17.5002 6.74984 17.5002Z" stroke="black" stroke-width="1.66667" stroke-linecap="round" stroke-linejoin="round"/>
</g>
</svg>
