<svg width="20" height="20" viewBox="0 0 20 20" fill="none" xmlns="http://www.w3.org/2000/svg">
<g id="Group">
<g id="Group_2">
<path id="Vector" d="M19.1651 18.3336H18.3319V9.11124C19.1738 8.84448 19.4853 7.70205 18.7625 7.05172L11.6642 0.670816C10.7446 -0.227518 9.24629 -0.227518 8.30273 0.694524L1.23916 7.04317C0.514392 7.69615 0.824928 8.84031 1.66769 9.11003C1.66753 9.79855 1.66753 9.83003 1.66733 10.8355C1.66714 11.8719 1.66698 12.8846 1.66687 13.8353C1.66667 15.8499 1.66675 17.3989 1.66718 18.3336H0.834653C0.374492 18.3336 0.00146484 18.7067 0.00146484 19.1668C0.00146484 19.627 0.374492 20 0.834653 20H2.50103H7.50024H12.4995H17.4987H19.1651C19.6252 20 19.9983 19.627 19.9983 19.1668C19.9983 18.7067 19.6252 18.3336 19.1651 18.3336ZM9.44204 1.91011C9.76355 1.59696 10.2282 1.59696 10.5253 1.8868L16.7709 7.502H3.22139L9.44204 1.91011ZM8.33347 18.3336V16.6672H9.16666C9.62682 16.6672 9.99984 16.2942 9.99984 15.834C9.99984 15.3738 9.62682 15.0008 9.16666 15.0008H8.33347V13.3344H11.6663V18.3336H8.33347ZM13.3327 18.3336V12.5012C13.3327 12.041 12.9597 11.668 12.4995 11.668H7.50028C7.04012 11.668 6.66709 12.041 6.66709 12.5012V18.3336H3.33356C3.33313 17.3996 3.33305 15.8495 3.33324 13.8354C3.33332 12.8848 3.33348 11.8721 3.33367 10.8358C3.33387 9.85936 3.33387 9.80152 3.33402 9.16838H16.6655V18.3336H13.3327Z" fill="black"/>
</g>
</g>
</svg>
